<svg xmlns="http://www.w3.org/2000/svg" viewBox="0 0 42.78 51.41"><defs><style>.cls-1{fill:none;stroke:#00abe9;stroke-linecap:round;stroke-linejoin:round;}</style></defs><title>Cotation des entreprises 1</title><g  data-name="Calque 2"><g data-name="Calque 1"><polyline class="cls-1" points="38.93 13.91 38.93 50.91 0.5 50.91 0.5 5.04 28.25 5.04"/><polygon class="cls-1" points="13.8 18.34 0.5 18.34 13.8 5.04 13.8 18.34"/><line class="cls-1" x1="33.06" y1="18.92" x2="19.67" y2="18.92"/><line class="cls-1" x1="33.06" y1="21.74" x2="23.53" y2="21.74"/><line class="cls-1" x1="33.06" y1="27.98" x2="6.3" y2="27.98"/><line class="cls-1" x1="33.06" y1="30.88" x2="6.3" y2="30.88"/><line class="cls-1" x1="33.06" y1="33.79" x2="6.3" y2="33.79"/><line class="cls-1" x1="33.06" y1="36.7" x2="6.3" y2="36.7"/><line class="cls-1" x1="33.06" y1="39.61" x2="6.3" y2="39.61"/><line class="cls-1" x1="33.06" y1="42.51" x2="6.3" y2="42.51"/><line class="cls-1" x1="33.06" y1="45.42" x2="6.3" y2="45.42"/><circle class="cls-1" cx="35" cy="7.78" r="7.28"/><polyline class="cls-1" points="32.12 7.55 34.19 9.62 37.87 5.94"/></g></g></svg>