<svg xmlns="http://www.w3.org/2000/svg" viewBox="0 0 45.85 51.63"><defs><style>.cls-1{fill:none;stroke:#00abe9;stroke-linecap:round;stroke-linejoin:round;}</style></defs><title>Cotation des entreprises 5</title><g  data-name="Calque 2"><g data-name="Calque 1"><circle class="cls-1" cx="38.07" cy="7.78" r="7.28"/><polyline class="cls-1" points="35.19 7.55 37.26 9.62 40.94 5.94"/><path class="cls-1" d="M36,48.63a21.79,21.79,0,0,1-8.1,1.52c-9.62,0-17.42-6-17.42-13.3s7.8-13.3,17.42-13.3,17.43,5.95,17.43,13.3a11.41,11.41,0,0,1-3.75,8.23"/><polyline class="cls-1" points="41.6 45.08 41.6 51.13 36.02 48.63"/><path class="cls-1" d="M7.88,33.38a16.51,16.51,0,0,0,3,.87,17.63,17.63,0,0,0,3.45.34c7.61,0,13.78-4.71,13.78-10.52a4.43,4.43,0,0,0,0-.52c-.35-5.57-6.38-10-13.76-10C6.67,13.55.5,18.26.5,24.07a9.06,9.06,0,0,0,3,6.51"/><polyline class="cls-1" points="3.46 30.58 3.46 35.36 7.88 33.38"/></g></g></svg>