<svg xmlns="http://www.w3.org/2000/svg" viewBox="0 0 43.33 52.67"><defs><style>.cls-1{fill:none;stroke:#00abe9;stroke-linecap:round;stroke-linejoin:round;}</style></defs><title>Cotation des entreprises 4</title><g  data-name="Calque 2"><g data-name="Calque 1"><path class="cls-1" d="M33.62,14.92a10.32,10.32,0,0,1,.09,1.48A12,12,0,1,1,28,6.15"/><path class="cls-1" d="M.5,52.17a21.17,21.17,0,1,1,42.33,0Z"/><polyline class="cls-1" points="13.67 32.57 21.67 38.15 29.68 32.57"/><polyline class="cls-1" points="21.67 38.15 23.88 39.5 23.88 52.17"/><circle class="cls-1" cx="19.9" cy="42.59" r="1.28"/><circle class="cls-1" cx="19.9" cy="48.13" r="1.28"/><rect class="cls-1" x="27.25" y="44.36" width="9.28" height="7.81"/><line class="cls-1" x1="27.25" y1="47.07" x2="36.53" y2="47.07"/><path class="cls-1" d="M17.84,35.36a5.42,5.42,0,0,1,7.67,0"/><path class="cls-1" d="M11.59,9.8s6,5.16,19,3.69"/><path class="cls-1" d="M15.5,11.93s-1.43,1.82-5.59,1.82"/><circle class="cls-1" cx="35.08" cy="7.78" r="7.28"/><polyline class="cls-1" points="32.2 7.55 34.27 9.62 37.96 5.94"/></g></g></svg>