<svg xmlns="http://www.w3.org/2000/svg" viewBox="0 0 44.09 49.14"><defs><style>.cls-1{fill:none;stroke:#00abe9;stroke-linecap:round;stroke-linejoin:round;}</style></defs><title>Cotation des entreprises 2</title><g data-name="Calque 2"><g data-name="Calque 1"><polygon class="cls-1" points="26.87 48.64 3.73 48.64 3.73 7.87 26.87 0.5 26.87 48.64"/><polygon class="cls-1" points="23.14 9.29 3.73 15.55 3.73 11.86 23.14 5.6 23.14 9.29"/><polygon class="cls-1" points="39.94 11.61 30.55 8.96 30.55 5.28 39.94 7.93 39.94 11.61"/><polygon class="cls-1" points="39.94 17.23 30.55 14.58 30.55 10.89 39.94 13.54 39.94 17.23"/><polygon class="cls-1" points="39.94 22.84 30.55 20.2 30.55 16.51 39.94 19.16 39.94 22.84"/><polygon class="cls-1" points="39.94 28.46 30.55 25.81 30.55 22.13 39.94 24.77 39.94 28.46"/><polygon class="cls-1" points="39.94 34.07 30.55 31.43 30.55 27.74 39.94 30.39 39.94 34.07"/><polygon class="cls-1" points="39.94 39.69 30.55 37.04 30.55 33.36 39.94 36 39.94 39.69"/><polygon class="cls-1" points="23.14 14.69 3.73 20.95 3.73 17.26 23.14 11 23.14 14.69"/><polygon class="cls-1" points="23.14 20.09 3.73 26.35 3.73 22.66 23.14 16.41 23.14 20.09"/><polygon class="cls-1" points="23.14 25.49 3.73 31.75 3.73 28.07 23.14 21.81 23.14 25.49"/><polygon class="cls-1" points="23.14 30.89 3.73 37.16 3.73 33.47 23.14 27.21 23.14 30.89"/><polygon class="cls-1" points="23.14 36.3 3.73 42.56 3.73 38.87 23.14 32.61 23.14 36.3"/><polygon class="cls-1" points="23.14 48.64 15.28 48.64 15.28 41.57 23.14 39.06 23.14 48.64"/><polygon class="cls-1" points="39.94 48.64 26.87 48.64 26.87 0.5 39.94 4.19 39.94 48.64"/><line class="cls-1" x1="0.5" y1="48.64" x2="43.59" y2="48.64"/></g></g></svg>