<svg xmlns="http://www.w3.org/2000/svg" viewBox="0 0 45.45 45.45"><defs><style>.cls-1{fill:none;stroke:#00abe9;stroke-linecap:round;stroke-linejoin:round;}.cls-2{fill:#00abe9;}</style></defs><title>Éducation éco &amp;amp; financière 3</title><g data-name="Calque 2"><g data-name="Calque 1"><circle class="cls-1" cx="22.73" cy="22.73" r="22.23"/><path class="cls-2" d="M19.51,28.94c.06-.26.14-.61.26-1l1.59-5.81a1.17,1.17,0,0,0,.05-.2,1.37,1.37,0,0,0,0-.19c0-.34-.11-.56-.33-.64a4.27,4.27,0,0,0-1.2-.17v-.68c.49,0,1.19-.1,2.11-.21s1.58-.19,2-.27l1.1-.21-2,7.36c-.17.63-.28,1.07-.34,1.31a7.21,7.21,0,0,0-.23,1.22.43.43,0,0,0,.13.36.54.54,0,0,0,.28.08c.26,0,.58-.22,1-.67a10.48,10.48,0,0,0,1-1.4l.57.36a17.71,17.71,0,0,1-1.94,2.5,3.35,3.35,0,0,1-2.35,1.07,2,2,0,0,1-1.27-.44,1.57,1.57,0,0,1-.56-1.33A5.21,5.21,0,0,1,19.51,28.94Zm6.08-14.69a1.74,1.74,0,0,1,0,2.46,1.65,1.65,0,0,1-1.22.51,1.7,1.7,0,0,1-1.24-.51,1.73,1.73,0,0,1,1.24-3A1.64,1.64,0,0,1,25.59,14.25Z"/></g></g></svg>