<svg xmlns="http://www.w3.org/2000/svg" viewBox="0 0 47.55 52.1"><defs><style>.cls-1{fill:none;stroke:#00abe9;stroke-linecap:round;stroke-linejoin:round;}</style></defs><title>Éducation éco &amp;amp; financière 1</title><g data-name="Calque 2"><g data-name="Calque 1"><path class="cls-1" d="M14.73,40.76a18,18,0,1,1,18.08,0"/><rect class="cls-1" x="14.73" y="40.76" width="18.12" height="2.8"/><rect class="cls-1" x="17.23" y="43.56" width="13.08" height="4.23"/><rect class="cls-1" x="18.09" y="49.94" width="3.84" height="1.67"/><rect class="cls-1" x="18.9" y="47.79" width="2.2" height="2.15"/><rect class="cls-1" x="25.62" y="49.94" width="3.84" height="1.67"/><rect class="cls-1" x="26.44" y="47.79" width="2.2" height="2.15"/><line class="cls-1" x1="11.13" y1="7.53" x2="9.41" y2="5.16"/><line class="cls-1" x1="3.3" y1="18.29" x2="0.51" y2="17.39"/><line class="cls-1" x1="3.29" y1="31.6" x2="0.5" y2="32.51"/><line class="cls-1" x1="44.25" y1="31.64" x2="47.03" y2="32.54"/><line class="cls-1" x1="44.26" y1="18.33" x2="47.05" y2="17.42"/><line class="cls-1" x1="36.45" y1="7.55" x2="38.17" y2="5.18"/><line class="cls-1" x1="23.79" y1="3.43" x2="23.79" y2="0.5"/><polyline class="cls-1" points="30.66 25.04 26.34 40.76 21.14 40.76 16.83 25.04"/><line class="cls-1" x1="17.92" y1="22.99" x2="18.68" y2="25.72"/><line class="cls-1" x1="19.63" y1="22.99" x2="20.38" y2="25.72"/><line class="cls-1" x1="21.34" y1="22.99" x2="22.09" y2="25.72"/><line class="cls-1" x1="23.04" y1="22.99" x2="23.8" y2="25.72"/><line class="cls-1" x1="24.75" y1="22.99" x2="25.51" y2="25.72"/><line class="cls-1" x1="26.46" y1="22.99" x2="27.21" y2="25.72"/><line class="cls-1" x1="28.17" y1="22.99" x2="28.92" y2="25.72"/><line class="cls-1" x1="19.53" y1="22.99" x2="18.78" y2="25.72"/><line class="cls-1" x1="21.24" y1="22.99" x2="20.48" y2="25.72"/><line class="cls-1" x1="22.95" y1="22.99" x2="22.19" y2="25.72"/><line class="cls-1" x1="24.65" y1="22.99" x2="23.9" y2="25.72"/><line class="cls-1" x1="26.36" y1="22.99" x2="25.61" y2="25.72"/><line class="cls-1" x1="28.07" y1="22.99" x2="27.31" y2="25.72"/><line class="cls-1" x1="29.78" y1="22.99" x2="29.02" y2="25.72"/></g></g></svg>