<svg xmlns="http://www.w3.org/2000/svg" viewBox="0 0 49.88 50.96"><defs><style>.cls-1{fill:none;stroke:#00abe9;stroke-linecap:round;stroke-linejoin:round;}.cls-2{fill:#00abe9;}</style></defs><title>Evoluer et innover</title><g data-name="Calque 2"><g data-name="Calque 1"><path class="cls-1" d="M19.35,36.48a12.15,12.15,0,1,1,11.34-.13"/><path class="cls-1" d="M19.38,36.42H30.57a0,0,0,0,1,0,0v3.67A2.57,2.57,0,0,1,28,42.66H22a2.57,2.57,0,0,1-2.57-2.57V36.42A0,0,0,0,1,19.38,36.42Z"/><polyline class="cls-1" points="28.97 42.66 28.97 43.89 20.98 43.89 20.98 42.66"/><polyline class="cls-1" points="23.09 36.21 20.63 26.02 29.17 26.02 26.71 36.21"/><line class="cls-1" x1="19.68" y1="11.67" x2="18.78" y2="9.19"/><line class="cls-1" x1="15.09" y1="14.31" x2="13.39" y2="12.28"/><line class="cls-1" x1="11.67" y1="18.36" x2="9.38" y2="17.04"/><line class="cls-1" x1="9.85" y1="23.33" x2="7.25" y2="22.87"/><line class="cls-1" x1="9.83" y1="28.63" x2="7.23" y2="29.09"/><line class="cls-1" x1="11.63" y1="33.61" x2="9.35" y2="34.93"/><line class="cls-1" x1="15.03" y1="37.68" x2="13.33" y2="39.7"/><line class="cls-1" x1="34.64" y1="37.72" x2="36.33" y2="39.75"/><line class="cls-1" x1="38.05" y1="33.67" x2="40.34" y2="35"/><line class="cls-1" x1="39.88" y1="28.7" x2="42.48" y2="29.16"/><line class="cls-1" x1="39.89" y1="23.4" x2="42.49" y2="22.95"/><line class="cls-1" x1="38.09" y1="18.42" x2="40.38" y2="17.1"/><line class="cls-1" x1="34.69" y1="14.36" x2="36.39" y2="12.33"/><line class="cls-1" x1="30.11" y1="11.7" x2="31.02" y2="9.21"/><line class="cls-1" x1="24.9" y1="10.76" x2="24.9" y2="8.12"/><path class="cls-1" d="M49.38,26a24.44,24.44,0,1,1-28-24.19"/><polygon class="cls-2" points="24.94 1.59 20.16 4.05 21.16 1.92 19.8 0 24.94 1.59"/></g></g></svg>