<svg xmlns="http://www.w3.org/2000/svg" viewBox="0 0 43.92 44.35"><defs><style>.cls-1{fill:none;stroke:#00abe9;stroke-linecap:round;stroke-linejoin:round;}</style></defs><title>Fichier bancaire 6</title><g  data-name="Calque 2"><g data-name="Calque 1"><rect class="cls-1" x="0.5" y="15.86" width="10.97" height="27.99"/><circle class="cls-1" cx="5.98" cy="37.64" r="1.72"/><path class="cls-1" d="M43.42,20.89a3,3,0,0,0-3-3H26l2.9-5.06a3.39,3.39,0,0,0,.39-1.06l1-5.6a5.18,5.18,0,0,0-1.73-4.88L28.24,1a2.18,2.18,0,0,0-3.44.81L21.64,9.35a9.77,9.77,0,0,1-2.43,3.43l-5.65,5.13H11.47V41.69h24a3,3,0,0,0,0-5.95h2a3,3,0,0,0,0-5.94h2a3,3,0,1,0,0-5.94h1A3,3,0,0,0,43.42,20.89Z"/></g></g></svg>