<svg xmlns="http://www.w3.org/2000/svg" viewBox="0 0 47.72 55.11"><defs><style>.cls-1{fill:none;stroke:#00abe9;stroke-linecap:round;stroke-linejoin:round;}</style></defs><title>Fichier bancaire 4</title><g  data-name="Calque 2"><g data-name="Calque 1"><path class="cls-1" d="M33.71,18.85A12,12,0,1,1,28,8.59"/><path class="cls-1" d="M.5,54.61a21.17,21.17,0,0,1,42.33,0Z"/><polyline class="cls-1" points="13.67 35.01 21.67 40.59 29.68 35.01"/><polyline class="cls-1" points="21.67 40.59 23.88 41.94 23.88 54.61"/><circle class="cls-1" cx="19.9" cy="45.04" r="1.28"/><circle class="cls-1" cx="19.9" cy="50.57" r="1.28"/><rect class="cls-1" x="27.25" y="46.8" width="9.28" height="7.81"/><line class="cls-1" x1="27.25" y1="49.51" x2="36.53" y2="49.51"/><path class="cls-1" d="M17.84,37.8a5.42,5.42,0,0,1,7.67,0"/><path class="cls-1" d="M11.59,12.24S17.73,17.4,31,15.93"/><path class="cls-1" d="M15.5,14.37s-1.43,1.82-5.59,1.82"/><circle class="cls-1" cx="37.51" cy="10.16" r="4.49"/><polygon class="cls-1" points="35.81 17.64 35.81 19.82 39.21 19.82 39.21 17.64 40.53 17.21 41.81 18.98 44.56 16.98 43.28 15.21 44.1 14.09 46.17 14.76 47.22 11.53 45.15 10.86 45.15 9.46 47.22 8.79 46.17 5.56 44.1 6.23 43.28 5.11 44.56 3.35 41.81 1.34 40.53 3.11 39.21 2.68 39.21 0.5 35.81 0.5 35.81 2.68 34.48 3.11 33.2 1.34 30.45 3.35 31.73 5.11 30.91 6.23 28.84 5.56 27.79 8.79 29.86 9.46 29.86 10.86 27.79 11.53 28.84 14.76 30.91 14.09 31.73 15.21 30.45 16.98 33.2 18.98 34.48 17.21 35.81 17.64"/><circle class="cls-1" cx="39.99" cy="26.62" r="2.45"/><polygon class="cls-1" points="39.07 30.7 39.07 31.88 40.92 31.88 40.92 30.7 41.64 30.46 42.34 31.42 43.84 30.33 43.14 29.38 43.58 28.76 44.71 29.13 45.28 27.37 44.16 27 44.16 26.24 45.28 25.88 44.71 24.11 43.58 24.48 43.14 23.87 43.84 22.91 42.34 21.82 41.64 22.78 40.92 22.55 40.92 21.36 39.07 21.36 39.07 22.55 38.35 22.78 37.65 21.82 36.15 22.91 36.85 23.87 36.4 24.48 35.28 24.11 34.7 25.88 35.83 26.24 35.83 27 34.7 27.37 35.28 29.13 36.4 28.76 36.85 29.38 36.15 30.33 37.65 31.42 38.35 30.46 39.07 30.7"/></g></g></svg>