<svg xmlns="http://www.w3.org/2000/svg" viewBox="0 0 43.82 52.11"><defs><style>.cls-1,.cls-2{fill:none;stroke:#00abe9;stroke-linecap:round;stroke-linejoin:round;}.cls-2{stroke-width:2px;}</style></defs><title>MODAC 3</title><g data-name="Calque 2"><g data-name="Calque 1"><polygon class="cls-1" points="0.5 51.61 43.32 51.61 43.32 15.32 28.5 0.5 0.5 0.5 0.5 51.61"/><polygon class="cls-1" points="28.5 15.32 43.32 15.32 28.5 0.5 28.5 15.32"/><line class="cls-1" x1="7.04" y1="15.97" x2="21.96" y2="15.97"/><line class="cls-1" x1="7.04" y1="19.1" x2="17.65" y2="19.1"/><line class="cls-1" x1="17.04" y1="26.05" x2="36.85" y2="26.05"/><line class="cls-1" x1="17.04" y1="32.53" x2="36.85" y2="32.53"/><line class="cls-1" x1="17.04" y1="39.01" x2="36.85" y2="39.01"/><line class="cls-1" x1="17.04" y1="45.49" x2="36.85" y2="45.49"/><polyline class="cls-2" points="7.39 25.91 8.75 27.26 11.16 24.85"/><polyline class="cls-2" points="7.39 32.38 8.75 33.74 11.16 31.32"/><polyline class="cls-2" points="7.39 38.86 8.75 40.22 11.16 37.8"/><polyline class="cls-2" points="7.39 45.34 8.75 46.7 11.16 44.28"/></g></g></svg>