<svg xmlns="http://www.w3.org/2000/svg" viewBox="0 0 54.36 50.39"><defs><style>.cls-1{fill:none;stroke:#00abe9;stroke-linecap:round;stroke-linejoin:round;}</style></defs><title>Ouverte sur environnement</title><g data-name="Calque 2"><g data-name="Calque 1"><path class="cls-1" d="M32.19,6.59a19.54,19.54,0,1,1-7-.44"/><path class="cls-1" d="M31.85,7.52c4.1,2.94,7,9.91,7,18,0,10.78-5.08,19.53-11.35,19.53S16.13,36.33,16.13,25.55c0-9.44,3.89-17.31,9.06-19.13"/><path class="cls-1" d="M31.34,3.74C35.53.73,39.39-.35,42,1.21c3.14,1.9,3.7,7.27,2,14.06"/><path class="cls-1" d="M25.75,45c-5,4.25-9.75,6-12.77,4.2-5.36-3.24-3.22-16.61,4.79-29.85a62.68,62.68,0,0,1,8.33-11"/><path class="cls-1" d="M42.57,13.16c-3.58,2.57-9,4.22-15.2,4.22s-11.48-1.61-15.06-4.13"/><path class="cls-1" d="M34.61,34.53a22.45,22.45,0,0,1,7.83,3.33"/><path class="cls-1" d="M12.31,37.86c3.58-2.53,9-4.13,15.06-4.13.76,0,1.51,0,2.25.07"/><line class="cls-1" x1="27.48" y1="9.28" x2="27.48" y2="45.08"/><line class="cls-1" x1="47.01" y1="25.55" x2="7.95" y2="25.55"/><circle class="cls-1" cx="28.7" cy="6.02" r="3.49"/><circle class="cls-1" cx="32.53" cy="31.74" r="3.49"/><path class="cls-1" d="M29.16,30.84c-1.09-.32-2.2-.65-3.33-1C11.12,25.22-.21,19.55.53,17.18c.39-1.24,4-1.34,9.51-.48"/><path class="cls-1" d="M46.81,28.33c4.68,2.32,7.39,4.37,7,5.57-.56,1.8-8,1.18-17.93-1.25"/></g></g></svg>