<svg xmlns="http://www.w3.org/2000/svg" viewBox="0 0 36.82 55.11"><defs><style>.cls-1{fill:none;stroke:#00abe9;stroke-linecap:round;stroke-linejoin:round;}</style></defs><title>Portail surendettement 3</title><g data-name="Calque 2"><g data-name="Calque 1"><circle class="cls-1" cx="18.41" cy="18.8" r="12.19"/><path class="cls-1" d="M32.85,8.94a9.62,9.62,0,0,0-8.52-6.61A9.64,9.64,0,0,0,13.55,2,9.64,9.64,0,0,0,4.63,8,9.62,9.62,0,0,0,1,18.19,9.61,9.61,0,0,0,4,28.55a9.63,9.63,0,0,0,8.52,6.62,9.64,9.64,0,0,0,10.78.34,9.63,9.63,0,0,0,8.93-6.06A9.64,9.64,0,0,0,35.86,19.3,9.64,9.64,0,0,0,32.85,8.94Z"/><polyline class="cls-1" points="28.61 33.8 28.61 54.61 18.41 49.21 8.22 54.61 8.22 33.8"/><polygon class="cls-1" points="18.41 12.52 20.44 16.98 25 16.98 21.7 20.53 22.48 25.07 18.41 22.93 14.33 25.07 15.11 20.53 11.81 16.98 16.37 16.98 18.41 12.52"/></g></g></svg>