<svg xmlns="http://www.w3.org/2000/svg" viewBox="0 0 48.81 47.97"><defs><style>.cls-1{fill:none;}.cls-1,.cls-2{stroke:#00abe9;stroke-linecap:round;stroke-linejoin:round;}.cls-2{fill:#00abe9;}</style></defs><title>Poratil webstat 4</title><g data-name="Calque 2"><g data-name="Calque 1"><circle class="cls-1" cx="41.03" cy="7.78" r="7.28"/><polyline class="cls-1" points="38.15 7.55 40.22 9.62 43.91 5.94"/><path class="cls-1" d="M45,33.1S35,47.47,22.73,47.47.5,33.1.5,33.1s10-14.37,22.23-14.37S45,33.1,45,33.1Z"/><circle class="cls-1" cx="22.73" cy="33.1" r="14.37"/><path class="cls-2" d="M29.15,30.12a2.48,2.48,0,0,1,2.49-2.49l.15,0a10.56,10.56,0,0,0-2.76-3,3.7,3.7,0,1,1-5.33-2.05c-.32,0-.65,0-1,0A10.59,10.59,0,1,0,33.31,33.1a10,10,0,0,0-.06-1.1,2.47,2.47,0,0,1-4.1-1.88Z"/></g></g></svg>