<svg xmlns="http://www.w3.org/2000/svg" viewBox="0 0 47.09 45.45"><defs><style>.cls-1{fill:none;stroke:#00abe9;stroke-linecap:round;stroke-linejoin:round;}</style></defs><title>Poratil webstat 2</title><g data-name="Calque 2"><g data-name="Calque 1"><polygon class="cls-1" points="0.5 3.09 23.54 10.95 23.54 44.95 0.5 37.09 0.5 3.09"/><polygon class="cls-1" points="46.59 3.09 23.54 10.95 23.54 44.95 46.59 37.09 46.59 3.09"/><line class="cls-1" x1="27.12" y1="38.82" x2="40.96" y2="34.1"/><line class="cls-1" x1="27.1" y1="36.44" x2="42.91" y2="31.05"/><line class="cls-1" x1="27.13" y1="34.03" x2="42.92" y2="28.65"/><polyline class="cls-1" points="4.52 4.46 4.52 2.01 23.54 10.95 7.66 0.98 7.67 3.49"/><polyline class="cls-1" points="23.54 10.95 11.34 0.5 11.34 2.86"/><polyline class="cls-1" points="42.55 4.46 42.55 2.01 23.52 10.95 39.41 0.98 39.39 3.49"/><polyline class="cls-1" points="23.52 10.95 35.73 0.5 35.73 2.86"/></g></g></svg>