<svg xmlns="http://www.w3.org/2000/svg" viewBox="0 0 43.3 47.13"><defs><style>.cls-1{fill:none;stroke:#00abe9;stroke-linecap:round;stroke-linejoin:round;}.cls-2{fill:#00abe9;}</style></defs><title>Portail surendettement 1</title><g data-name="Calque 2"><g data-name="Calque 1"><circle class="cls-1" cx="19.61" cy="19.61" r="19.11"/><path class="cls-1" d="M6.1,6.41a19.12,19.12,0,0,0,27,0"/><path class="cls-1" d="M33.13,32.91a19.12,19.12,0,0,0-27,0"/><path class="cls-1" d="M22.56,38.39a26.55,26.55,0,0,0,0-37.55"/><path class="cls-1" d="M16.67,38.39a26.55,26.55,0,0,1,0-37.55"/><path class="cls-2" d="M29.6,30l3.52,12.36,1.57-3.94,6.47,8.26a1.2,1.2,0,0,0,2.14-.74,1.21,1.21,0,0,0-.26-.74l-6.47-8.25,4.2-.59Z"/><line class="cls-1" x1="0.5" y1="19.61" x2="38.73" y2="19.61"/><line class="cls-1" x1="19.61" y1="0.5" x2="19.61" y2="38.73"/></g></g></svg>