<svg xmlns="http://www.w3.org/2000/svg" viewBox="0 0 45.45 45.45"><defs><style>.cls-1{fill:none;stroke:#00abe9;stroke-linecap:round;stroke-linejoin:round;}</style></defs><title>Poratil webstat 1</title><g data-name="Calque 2"><g data-name="Calque 1"><circle class="cls-1" cx="22.73" cy="22.73" r="22.23"/><line class="cls-1" x1="22.73" y1="0.5" x2="22.73" y2="22.73"/><polyline class="cls-1" points="7.16 38.3 22.73 22.73 38.3 38.3"/><line class="cls-1" x1="22.73" y1="3.03" x2="12.75" y2="3.03"/><line class="cls-1" x1="22.73" y1="5.75" x2="8.53" y2="5.75"/><line class="cls-1" x1="22.73" y1="8.47" x2="5.72" y2="8.47"/><line class="cls-1" x1="22.73" y1="11.19" x2="3.73" y2="11.19"/><line class="cls-1" x1="22.73" y1="13.91" x2="2.32" y2="13.91"/><line class="cls-1" x1="22.73" y1="16.63" x2="1.35" y2="16.63"/><line class="cls-1" x1="22.73" y1="19.34" x2="0.76" y2="19.34"/><line class="cls-1" x1="22.73" y1="22.06" x2="0.5" y2="22.06"/><line class="cls-1" x1="20.67" y1="24.78" x2="0.76" y2="24.78"/><line class="cls-1" x1="17.74" y1="27.5" x2="1.02" y2="27.5"/><line class="cls-1" x1="15.23" y1="30.22" x2="1.8" y2="30.22"/><line class="cls-1" x1="12.51" y1="32.94" x2="2.95" y2="32.94"/><line class="cls-1" x1="9.79" y1="35.66" x2="4.65" y2="35.66"/></g></g></svg>