<svg xmlns="http://www.w3.org/2000/svg" viewBox="0 0 66.67 30.43"><defs><style>.cls-1{fill:none;stroke:#00abe9;stroke-linecap:round;stroke-linejoin:round;}</style></defs><title>Relation interlocuteur</title><g  data-name="Calque 2"><g data-name="Calque 1"><path class="cls-1" d="M.54,23.84l6.67,2.88C10.76,24,14,15.36,15.51,11.12s.86-6.06.86-6.06L10.23,2.44S-.26,7.26.54,23.84Z"/><path class="cls-1" d="M16.45,5.46,19.29,6.6a9.24,9.24,0,0,1-.4,4c-.71,1.92-3.6,9.09-5.11,10.9a12.53,12.53,0,0,1-2.4-.52"/><path class="cls-1" d="M29.89,5.56A1.91,1.91,0,0,1,29,7.09c-.25.16-2.39,1.62-4,1.43s-2.05-2.06-2-2.42c0,0-.14-.32,1.14-.8a11.51,11.51,0,0,0,3.3-2.18,2.18,2.18,0,0,1,2-.5c.74.14,5.31.78,6.13.9s1.93.69,2.56.81,4.11.46,4.65.54.93.68,1.58.82,3.7-.94,4.05-1.11"/><path class="cls-1" d="M29.1,7s2.37.3,3.32.55,4.89,2.84,7.28,4.82,5.49,4.47,5.82,4.79a20.37,20.37,0,0,1,2.35,3.14,2.14,2.14,0,0,1-.51,2.25c-.59.46-1.52,1.1-2.38.54s-7.48-6-7.48-6"/><path class="cls-1" d="M44.37,22.63a2.88,2.88,0,0,1,.07,1.47,2.87,2.87,0,0,1-.85,1.17c-.26.18-1.59,1.28-2.51.54s-5.09-4-5.09-4"/><path class="cls-1" d="M40.88,25.65a2.12,2.12,0,0,1,.24,1,2.51,2.51,0,0,1-.95,1.19,2.42,2.42,0,0,1-1.82.42,60.15,60.15,0,0,1-5.18-3.4"/><path class="cls-1" d="M36.79,27.37a3.91,3.91,0,0,1-.13,1.29,2.59,2.59,0,0,1-2.26,1.26,6.24,6.24,0,0,1-2.79-1.67l-1.45-1.41c-.2-.18-1.76-.94-2.4.05"/><path class="cls-1" d="M14.81,19.91s4.07,3,4.58,3.3a5,5,0,0,0,2,.72,8.38,8.38,0,0,0-.22.95c-.05.37.35,1.85,1.26,2.16a2.22,2.22,0,0,0,1.9-.13,2.75,2.75,0,0,0,1.79,1.84,1.76,1.76,0,0,0,1.59-.41c.46.56.92,1.36,2,1.5a2.89,2.89,0,0,0,2.51-1.09"/><path class="cls-1" d="M24.51,26.67a1.84,1.84,0,0,0-.5-2.06c-1-.82-1.89-1.21-2.61-.68"/><path class="cls-1" d="M27.74,28.19a2.06,2.06,0,0,0-.06-1.46c-.35-.57-.61-1.13-1.19-1.24a2.54,2.54,0,0,0-1.81.14"/><path class="cls-1" d="M18.47,22.56a4.76,4.76,0,0,0-.33,1.91,1.3,1.3,0,0,0,1.17.89,2.57,2.57,0,0,0,1.93-.8"/><path class="cls-1" d="M19.31,6.76s3.21-.47,3.6-.66"/><path class="cls-1" d="M48.32,4.49A13.53,13.53,0,0,1,50.2,8c.67,1.92,4.76,12.6,5.21,13.34a28.58,28.58,0,0,0,3.19-1.4"/><line class="cls-1" x1="48.26" y1="4.6" x2="50.3" y2="3.41"/><path class="cls-1" d="M57.32,20.53s1.16,2.11,1.91,3.58.44-1.63-.06-2.73-6.54-14-6.84-14.72a28,28,0,0,0-2.11-3.48S51.61,2.59,56.41.5c0,0,10.9,4.73,9.66,20l-6.43,4"/><path class="cls-1" d="M47.7,19.87a16.84,16.84,0,0,1,2.94-2.51,17,17,0,0,1,2.79-.89"/></g></g></svg>