<svg xmlns="http://www.w3.org/2000/svg" viewBox="0 0 378 324.67"><defs><style>.cls-1{fill:#fafafa;stroke:#e6e6e6;stroke-miterlimit:10;stroke-width:2px;}.cls-2{fill:#c4ccd9;}.cls-2,.cls-3,.cls-4,.cls-5{stroke:#000;stroke-linecap:round;stroke-linejoin:round;}.cls-3{fill:none;}.cls-4{fill:#f0f0f0;}.cls-5{fill:#fff;}</style></defs><title>FICHIERS BANCAIRESDES ENTREPRISES</title><g id="Calque_2" data-name="Calque 2"><g id="Calque_1-2" data-name="Calque 1"><path class="cls-1" d="M377,248.82V124.41a10,10,0,0,0-6.55-9.39L195.91,50.79a20,20,0,0,0-13.82,0L7.55,115A10,10,0,0,0,1,124.41V248.82a10,10,0,0,0,6.55,9.39l174.54,64.23a20,20,0,0,0,13.82,0l174.54-64.23A10,10,0,0,0,377,248.82Z"/><circle class="cls-2" cx="92.24" cy="150.92" r="40.58"/><polyline class="cls-3" points="92.24 110.33 92.24 150.92 132.82 150.92"/><polyline class="cls-3" points="122.3 123.66 92.24 150.92 74.12 187.23"/><path class="cls-2" d="M120.84,299.9C109,247.49,80.83,147,80.83,147s-8.09,1.78-3.69,18.67c3.14,12.07,21.8,87.78,32.2,130"/><path class="cls-4" d="M308.54,263.33a7.33,7.33,0,0,0,4.56-8.6L272.75,89.37l-121.22,47-2.38-9.26a4.7,4.7,0,0,0-6.17-3.22L80.83,147a5.67,5.67,0,0,0-3.53,6.66l34.92,143.11,19.27,6.82,177.05-40.22"/><line class="cls-3" x1="271.38" y1="0.5" x2="271.38" y2="15.19"/><line class="cls-3" x1="278.73" y1="7.84" x2="264.04" y2="7.84"/><line class="cls-3" x1="56.85" y1="198.08" x2="46.46" y2="208.46"/><line class="cls-3" x1="56.85" y1="208.46" x2="46.46" y2="198.08"/><line class="cls-3" x1="85.26" y1="33.56" x2="85.26" y2="48.25"/><line class="cls-3" x1="92.61" y1="40.9" x2="77.92" y2="40.9"/><polygon class="cls-2" points="258.93 149.99 167.28 184.05 167.28 64.67 258.93 30.72 258.93 149.99"/><path class="cls-4" d="M204.63,170.17V76.55L296.28,42.6V253.07l-27.46,10.18V153.68a5.12,5.12,0,0,0-6.9-4.8Z"/><line class="cls-4" x1="260.7" y1="77.26" x2="285.91" y2="67.92"/><line class="cls-4" x1="260.7" y1="82.37" x2="285.91" y2="73.03"/><line class="cls-4" x1="260.7" y1="87.48" x2="285.91" y2="78.14"/><line class="cls-4" x1="216.58" y1="134.21" x2="285.91" y2="108.53"/><line class="cls-4" x1="216.58" y1="139.56" x2="285.91" y2="113.87"/><line class="cls-4" x1="268.82" y1="150.92" x2="285.91" y2="144.59"/><line class="cls-4" x1="268.82" y1="157.25" x2="285.91" y2="150.92"/><line class="cls-4" x1="268.82" y1="163.58" x2="285.91" y2="157.25"/><line class="cls-4" x1="268.82" y1="169.91" x2="285.91" y2="163.58"/><line class="cls-4" x1="268.82" y1="176.24" x2="285.91" y2="169.91"/><line class="cls-4" x1="268.82" y1="182.56" x2="285.91" y2="176.24"/><line class="cls-4" x1="268.82" y1="188.89" x2="285.91" y2="182.56"/><line class="cls-4" x1="268.82" y1="195.22" x2="285.91" y2="188.89"/><line class="cls-4" x1="268.82" y1="201.55" x2="285.91" y2="195.22"/><line class="cls-4" x1="268.82" y1="207.88" x2="285.91" y2="201.55"/><line class="cls-4" x1="268.82" y1="214.21" x2="285.91" y2="207.88"/><line class="cls-4" x1="268.82" y1="220.54" x2="285.91" y2="214.21"/><line class="cls-4" x1="268.82" y1="226.87" x2="285.91" y2="220.54"/><line class="cls-4" x1="268.82" y1="233.2" x2="285.91" y2="226.87"/><line class="cls-4" x1="268.82" y1="239.53" x2="285.91" y2="233.2"/><path class="cls-2" d="M127.62,302.4c.52-41.2-1.62-112.56-1.62-112.56a11,11,0,0,0-8.34,11.06c0,5.79.27,63.18.43,98"/><path class="cls-5" d="M121.07,300V195.07a4.92,4.92,0,0,1,3.19-4.59l183.79-68.31a4.9,4.9,0,0,1,6.6,4.59v130.9a4.88,4.88,0,0,1-3.19,4.58L165.72,316.41"/><line class="cls-4" x1="137.62" y1="202.39" x2="168.98" y2="190.77"/><line class="cls-4" x1="137.62" y1="207.5" x2="173.5" y2="194.21"/><line class="cls-4" x1="137.62" y1="212.61" x2="162.83" y2="203.27"/></g></g></svg>