<svg id="service-8" xmlns="http://www.w3.org/2000/svg" viewBox="0 0 378 324.67"><defs><style>.cls-1{fill:#fafafa;stroke:#e6e6e6;stroke-width:2px;}.cls-1,.cls-10,.cls-7,.cls-8,.cls-9{stroke-miterlimit:10;}.cls-2,.cls-4,.cls-8{fill:#c4ccd9;}.cls-10,.cls-2,.cls-3,.cls-5,.cls-6,.cls-7,.cls-8,.cls-9{stroke:#010101;}.cls-10,.cls-2,.cls-3,.cls-4,.cls-5,.cls-6{stroke-linecap:round;}.cls-2,.cls-3,.cls-4,.cls-5,.cls-6{stroke-linejoin:round;}.cls-10,.cls-3{fill:none;}.cls-4{stroke:#1e1e1c;}.cls-5,.cls-9{fill:#fff;}.cls-6{fill:#f1f1f1;}.cls-7{fill:#f0f0f0;}</style></defs>
    <path class="cls-1" d="M377,248.82V124.41a10,10,0,0,0-6.55-9.39L195.91,50.79a20,20,0,0,0-13.82,0L7.55,115A10,10,0,0,0,1,124.41V248.82a10,10,0,0,0,6.55,9.39l174.54,64.23a20,20,0,0,0,13.82,0l174.54-64.23A10,10,0,0,0,377,248.82Z" />
    <path class="cls-2 grey" d="M192.78,280.35H211c9.61,0,17.4-11.68,17.4-26.1s-7.79-26.1-17.4-26.1H192.78" />
    <path class="cls-2 grey" d="M92.79,244.86H111c9.61,0,17.4-11.69,17.4-26.11s-7.79-26.1-17.4-26.1H92.79" />
    <polygon class="cls-3" points="206.29 121.72 220.53 194.63 323.84 194.63 308.85 121.72 206.29 121.72" />
    <polygon class="cls-2 grey" points="65.32 67 167.88 67 308.85 121.72 206.29 121.72 65.32 67" />
    <polygon class="cls-3" points="220.53 194.63 248.02 230.97 353.8 230.97 354.57 230.97 323.84 194.63 220.53 194.63" />
    <polyline class="cls-2 grey" points="354.57 264.05 354.57 230.97 248.02 230.97 248.02 283.19 301.3 283.89" />
    <path class="cls-4" d="M220.53,194.63,206.3,121.72,65.32,67V214.66l6.68,2.5c.55-16.83,9.82-30.23,21.18-30.23,11.72,0,21.22,14.25,21.22,31.82a45.46,45.46,0,0,1-2,13.56L172,254.66v-.41c0-17.57,9.49-31.82,21.21-31.82s21.21,14.25,21.21,31.82a44.74,44.74,0,0,1-2.62,15.34L248,283.19V231Z" />
    <ellipse class="cls-3" cx="193.17" cy="254.25" rx="17.4" ry="26.1" />
    <ellipse class="cls-3" cx="93.18" cy="218.75" rx="17.4" ry="26.1" />
    <ellipse class="cls-2 grey" cx="92.2" cy="218.75" rx="10.15" ry="15.22" />
    <ellipse class="cls-2 grey" cx="191.37" cy="254.25" rx="10.15" ry="15.22" />
    <line class="cls-5" x1="72" y1="217.16" x2="75.78" y2="217.16" />
    <line class="cls-5" x1="171.96" y1="254.66" x2="175.77" y2="254.66" />
    <line class="cls-5" x1="156.67" y1="102.46" x2="156.67" y2="248.93" />
    <line class="cls-5" x1="220.53" y1="194.63" x2="65.32" y2="137.33" />
    <line class="cls-5" x1="79.46" y1="124.01" x2="37.96" y2="108.69" />
    <line class="cls-5" x1="152.08" y1="72.8" x2="110.59" y2="57.48" />
    <line class="cls-5" x1="62.11" y1="147.57" x2="48.71" y2="142.63" />
    <line class="cls-5" x1="156.32" y1="68.62" x2="142.93" y2="63.67" />
    <line class="cls-5" x1="73.89" y1="156.38" x2="39.21" y2="143.58" />
    <line class="cls-5" x1="77.88" y1="196.72" x2="65.32" y2="192.09" />
    <line class="cls-5" x1="177.16" y1="233.38" x2="113.56" y2="209.9" />
    <polyline class="cls-6" points="213.89 246.94 248.02 259.54 354.57 259.54" />
    <polygon class="cls-2 grey" points="213.89 186.82 201.95 125.87 201.95 125.87 161.1 109.8 161.1 109.8 161.1 167.6 213.89 186.82 213.89 186.82" />
    <polygon class="cls-2 grey" points="223.89 186.82 211.95 125.87 305.55 125.87 317.49 186.82 223.89 186.82" />
    <path class="cls-7" d="M104.71,167.64c-3.24,0-7.67-8.29-8.26-22l8.8,3,1.19-3.44-10-3.45c0-1.43.08-2.81.17-4.14l9.39,3.23,1.18-3.44-10.2-3.5c1.37-10.34,5-16.42,7.78-16.42,1.39,0,2.63,1.4,3.42,2.58l3-2c-2.33-3.45-4.78-4.17-6.43-4.17-5.92,0-9.76,8.6-11.26,18.85l-3.36-1.16L88.91,135,93,136.42c-.12,1.36-.2,2.74-.24,4.11l-3.38-1.16-1.19,3.44,4.57,1.56c.34,13.36,4.5,26.91,11.93,26.91,1.38,0,3.45-.52,5.52-3L107.46,166A4,4,0,0,1,104.71,167.64Z" />
    <polygon class="cls-2 grey" points="165.53 196.66 161.1 194.84 161.1 178.3 165.53 180.12 165.53 196.66" />
    <rect class="cls-3" x="254.52" y="236.47" width="18.19" height="18.19" />
    <rect class="cls-3" x="331.19" y="236.47" width="18.19" height="18.19" />
    <line class="cls-8" x1="46.6" y1="28.25" x2="46.6" y2="41.8" />
    <line class="cls-8" x1="53.38" y1="35.02" x2="39.83" y2="35.02" />
    <line class="cls-8" x1="129.75" y1="262.69" x2="129.75" y2="276.24" />
    <line class="cls-8" x1="136.53" y1="269.47" x2="122.98" y2="269.47" />
    <line class="cls-8" x1="309.57" y1="0.5" x2="299.98" y2="10.08" />
    <line class="cls-8" x1="309.57" y1="10.08" x2="299.98" y2="0.5" />
</svg>