<svg id="service-2" xmlns="http://www.w3.org/2000/svg" viewBox="0 0 378 324.67"><defs><style>.cls-1{fill:#fafafa;stroke:#e6e6e6;stroke-width:2px;}.cls-1,.cls-10,.cls-7,.cls-8,.cls-9{stroke-miterlimit:10;}.cls-2,.cls-4,.cls-8{fill:#c4ccd9;}.cls-10,.cls-2,.cls-3,.cls-5,.cls-6,.cls-7,.cls-8,.cls-9{stroke:#010101;}.cls-10,.cls-2,.cls-3,.cls-4,.cls-5,.cls-6{stroke-linecap:round;}.cls-2,.cls-3,.cls-4,.cls-5,.cls-6{stroke-linejoin:round;}.cls-10,.cls-3{fill:none;}.cls-4{stroke:#1e1e1c;}.cls-5,.cls-9{fill:#fff;}.cls-6{fill:#f1f1f1;}.cls-7{fill:#f0f0f0;}</style></defs>
    <path class="cls-1" d="M377,248.82V124.41a10,10,0,0,0-6.55-9.39L195.91,50.79a20,20,0,0,0-13.82,0L7.55,115A10,10,0,0,0,1,124.41V248.82a10,10,0,0,0,6.55,9.39l174.54,64.23a20,20,0,0,0,13.82,0l174.54-64.23A10,10,0,0,0,377,248.82Z" />
    <path class="cls-2" d="M222.32,312.77l-22.21,8.12L197,322a20.28,20.28,0,0,1-15.89,0l-4.82-1.78-36.5-13.4V37.57l82.54,41.15Z" />
    <polyline class="cls-3 grey" points="73.71 90.58 73.71 46.62 139.78 37.57 139.78 306.9 73.71 282.56 73.71 265.67" />
    <line class="cls-3 grey" x1="73.71" y1="264.84" x2="73.71" y2="112.65" />
    <line class="cls-4" x1="139.78" y1="54.03" x2="222.32" y2="95.18" />
    <polygon class="cls-5 grey" points="213.1 119.41 150.58 88.24 150.58 75.51 213.1 119.41" />
    <polygon class="cls-5 grey" points="213.1 144.87 150.58 113.69 150.58 100.97 213.1 144.87" />
    <polygon class="cls-5 grey" points="213.1 170.32 150.58 139.15 150.58 126.42 213.1 170.32" />
    <polygon class="cls-5 grey" points="213.1 195.75 150.58 164.58 150.58 151.85 213.1 195.75" />
    <polygon class="cls-5 grey" points="213.1 221.23 150.58 190.06 150.58 177.33 213.1 221.23" />
    <polygon class="cls-5 grey" points="213.1 246.69 150.58 215.52 150.58 202.79 213.1 246.69" />
    <polygon class="cls-5 grey" points="213.1 272.14 150.58 240.97 150.58 228.25 213.1 272.14" />
    <polygon class="cls-5 grey" points="213.1 297.6 150.58 266.43 150.58 253.7 213.1 297.6" />
    <polygon class="cls-4" points="213.1 144.87 150.58 113.69 150.58 100.97 213.1 132.14 213.1 144.87" />
    <polygon class="cls-4" points="213.1 170.32 150.58 139.15 150.58 126.42 213.1 157.59 213.1 170.32" />
    <polygon class="cls-4" points="213.1 195.78 150.58 164.61 150.58 151.88 213.1 183.05 213.1 195.78" />
    <polygon class="cls-4" points="213.1 221.23 150.58 190.06 150.58 177.33 213.1 208.51 213.1 221.23" />
    <polygon class="cls-4" points="213.1 246.69 150.58 215.52 150.58 202.79 213.1 233.96 213.1 246.69" />
    <polygon class="cls-4" points="213.1 272.14 150.58 240.97 150.58 228.25 213.1 259.42 213.1 272.14" />
    <polygon class="cls-4" points="213.1 297.6 150.58 266.43 150.58 253.7 213.1 284.87 213.1 297.6" />
    <polygon class="cls-3 grey" points="249.86 302.65 222.32 312.77 222.32 118.94 249.86 115.17 249.86 302.65" />
    <polygon class="cls-2" points="309.91 280.49 249.86 302.65 249.86 115.17 309.91 145.11 309.91 280.49" />
    <line class="cls-4" x1="249.86" y1="127.14" x2="309.91" y2="157.09" />
    <polygon class="cls-5 grey" points="303.2 174.72 257.71 152.04 257.71 142.78 303.2 174.72" />
    <polygon class="cls-5 grey" points="303.2 193.24 257.71 170.56 257.71 161.3 303.2 193.24" />
    <polygon class="cls-5 grey" points="303.2 211.76 257.71 189.08 257.71 179.82 303.2 211.76" />
    <polygon class="cls-5 grey" points="303.2 230.28 257.71 207.6 257.71 198.34 303.2 230.28" />
    <polygon class="cls-5 grey" points="303.2 248.8 257.71 226.12 257.71 216.86 303.2 248.8" />
    <polygon class="cls-5 grey" points="303.2 267.32 257.71 244.64 257.71 235.38 303.2 267.32" />
    <polygon class="cls-5 grey" points="299.88 284.19 257.71 263.17 257.71 253.9 300.51 283.96 299.88 284.19" />
    <polygon class="cls-5 grey" points="278.53 292.07 257.71 281.69 257.71 272.43 283.19 290.32 278.53 292.07" />
    <polygon class="cls-4" points="303.2 193.24 257.71 170.56 257.71 161.3 303.2 183.98 303.2 193.24" />
    <polygon class="cls-4" points="303.2 211.76 257.71 189.08 257.71 179.82 303.2 202.5 303.2 211.76" />
    <polygon class="cls-4" points="303.2 230.28 257.71 207.6 257.71 198.34 303.2 221.02 303.2 230.28" />
    <polygon class="cls-4" points="303.2 248.8 257.71 226.12 257.71 216.86 303.2 239.54 303.2 248.8" />
    <polygon class="cls-4" points="303.2 267.32 257.71 244.64 257.71 235.38 303.2 258.06 303.2 267.32" />
    <polyline class="cls-4" points="299.88 284.19 257.71 263.17 257.71 253.9 303.2 276.58 303.2 282.96" />
    <polygon class="cls-4" points="278.53 292.07 257.71 281.69 257.71 272.43 289.2 288.13 278.53 292.07" />
    <line class="cls-4" x1="331.85" y1="272.43" x2="331.85" y2="262.23" />
    <path class="cls-3 grey" d="M335,268.68a8.53,8.53,0,0,0,3.12-6.45c0-9.44-4-14.64-6.24-14.64s-4.48,9.68-3.16,12.47" />
    <path class="cls-3 grey" d="M336.86,266.5a22.46,22.46,0,0,1,2.4,3.19L325,274.94c-2.63-5.59,4.24-16.05,5.42-17.31" />
    <line class="cls-4" x1="137.06" y1="0.5" x2="137.06" y2="13.18" />
    <line class="cls-4" x1="143.4" y1="6.84" x2="130.72" y2="6.84" />
    <line class="cls-4" x1="338.83" y1="166.11" x2="338.83" y2="178.79" />
    <line class="cls-4" x1="345.17" y1="172.45" x2="332.49" y2="172.45" />
    <path class="cls-6" d="M90.71,102.4h-.09a11.32,11.32,0,0,0,.09-1.43,11.67,11.67,0,0,0-22.5-4.37,8.55,8.55,0,0,0-4.4-1.22,8.64,8.64,0,0,0,0,17.27h26.9a5.13,5.13,0,1,0,0-10.25Z" />
    <line class="cls-4" x1="66.56" y1="279.94" x2="66.56" y2="231.92" />
    <path class="cls-3 grey" d="M73.13,245.55a18,18,0,0,0,6.58-13.63C79.71,212,71.31,201,66.56,201s-9.47,20.43-6.67,26.31" />
    <path class="cls-3 grey" d="M63.48,222.22c-3.36,3.59-28.55,42.49,3.08,43.89,35.5,1.57,10.56-25.17,10.56-25.17" />
    <polygon class="cls-4" points="213.1 119.41 150.58 88.24 150.58 75.51 213.1 106.68 213.1 119.41" />
    <polygon class="cls-4" points="303.2 174.72 257.71 152.04 257.71 142.78 303.2 165.46 303.2 174.72" />
    <path class="cls-3 grey" d="M276.16,86.68A13.85,13.85,0,1,1,290,72.83" />
    <polyline class="cls-4" points="276.16 58.98 276.16 72.83 290.01 72.83" />
    <polyline class="cls-4" points="287.05 64.27 276.16 72.83 273.02 86.32" />
    <path class="cls-6" d="M279.38,85.93h.1a11.32,11.32,0,0,1-.1-1.43,11.58,11.58,0,0,1,11.47-11.68,11.45,11.45,0,0,1,10.62,7.31,8.27,8.27,0,0,1,4.32-1.22,8.63,8.63,0,0,1,0,17.26H279.38a5.13,5.13,0,0,1,0-10.25Z" />
    <line class="cls-4" x1="59.67" y1="170.23" x2="50.7" y2="179.2" />
    <line class="cls-4" x1="59.67" y1="179.2" x2="50.7" y2="170.23" />
</svg>