<svg xmlns="http://www.w3.org/2000/svg" viewBox="0 0 43.33 43.33"><defs><style>.cls-1{fill:none;stroke:#00abe9;stroke-linecap:round;stroke-linejoin:round;}</style></defs><title>Services fiduciaires 4</title><g data-name="Calque 2"><g data-name="Calque 1"><path class="cls-1" d="M26,20.91l6.16-6.16,2.25.6A6.82,6.82,0,0,0,41,13.58a6.1,6.1,0,0,0,1.64-5.66l0-.22-4,4-5.41-1.45L33,10.15,31.59,4.74l4-4-.23,0a6.09,6.09,0,0,0-5.65,1.63A6.84,6.84,0,0,0,28,8.88l.6,2.26L11.14,28.58,8.88,28a6.84,6.84,0,0,0-6.6,1.77A6.09,6.09,0,0,0,.65,35.4l0,.23,4-4L10.08,33l.22.22,1.44,5.35-4,4,.22,0A6.1,6.1,0,0,0,13.58,41a6.82,6.82,0,0,0,1.77-6.6l-.6-2.25L20.91,26"/><line class="cls-1" x1="8.62" y1="8.5" x2="22" y2="21.88"/><path class="cls-1" d="M26.41,23.58a1.62,1.62,0,0,1,0-2.29L24.5,19.38,19.38,24.5l1.92,1.92a1.61,1.61,0,0,1,2.26,0,1.62,1.62,0,0,1,0,2.26l13,13,5.12-5.12-13-13A1.62,1.62,0,0,1,26.41,23.58Z"/><line class="cls-1" x1="23.94" y1="23.94" x2="36.88" y2="36.88"/><polygon class="cls-1" points="9.1 8.02 8.12 9.01 6.02 8.5 2.96 5.44 5.53 2.87 8.59 5.93 9.1 8.02"/></g></g></svg>