<svg xmlns="http://www.w3.org/2000/svg" viewBox="0 0 43.43 47.84"><defs><style>.cls-1{fill:none;stroke:#00abe9;stroke-linecap:round;stroke-linejoin:round;}</style></defs><title>Services bancaires 5</title><g data-name="Calque 2"><g data-name="Calque 1"><path class="cls-1" d="M38.92,5h0a4,4,0,0,1,4,4V43.34a4,4,0,0,1-4,4H4.54a4,4,0,0,1-4-4V9a4,4,0,0,1,4-4h0"/><line class="cls-1" x1="9.12" y1="4.95" x2="34.34" y2="4.95"/><line class="cls-1" x1="0.54" y1="15.13" x2="42.92" y2="15.13"/><rect class="cls-1" x="4.54" y="0.5" width="4.58" height="8.9" rx="2.29" ry="2.29"/><rect class="cls-1" x="34.34" y="0.5" width="4.58" height="8.9" rx="2.29" ry="2.29"/><line class="cls-1" x1="21.73" y1="15.13" x2="21.73" y2="47.34"/><line class="cls-1" x1="11.18" y1="15.13" x2="11.18" y2="47.34"/><line class="cls-1" x1="32.25" y1="15.13" x2="32.25" y2="47.34"/><line class="cls-1" x1="42.93" y1="25.98" x2="0.5" y2="25.98"/><line class="cls-1" x1="42.93" y1="36.49" x2="0.5" y2="36.49"/></g></g></svg>