<svg xmlns="http://www.w3.org/2000/svg" viewBox="0 0 42.94 42.94"><defs><style>.cls-1{fill:none;stroke:#00abe9;stroke-linecap:round;stroke-linejoin:round;}</style></defs><title>Services fiduciaires 6</title><g data-name="Calque 2"><g data-name="Calque 1"><path class="cls-1" d="M17.36,41.26A20.26,20.26,0,0,1,1.57,25.5"/><path class="cls-1" d="M41.24,25.5A20.27,20.27,0,0,1,25.49,41.25"/><path class="cls-1" d="M25.48,1.58a20.26,20.26,0,0,1,15.76,15.8"/><path class="cls-1" d="M1.57,17.34A20.27,20.27,0,0,1,17.32,1.58"/><path class="cls-1" d="M9.24,17.38a12.81,12.81,0,0,1,8.08-8.11"/><path class="cls-1" d="M17.36,33.58A12.84,12.84,0,0,1,9.25,25.5"/><path class="cls-1" d="M33.57,25.46a12.88,12.88,0,0,1-8.08,8.11"/><path class="cls-1" d="M25.49,9.27a12.86,12.86,0,0,1,8.08,8.11"/><rect class="cls-1" x="1.26" y="16.73" width="8.17" height="9.37" transform="translate(-16.07 26.77) rotate(-90)"/><rect class="cls-1" x="17.32" y="32.79" width="8.17" height="9.37" transform="translate(42.8 74.95) rotate(-180)"/><rect class="cls-1" x="33.37" y="16.73" width="8.17" height="9.37" transform="translate(58.88 -16.04) rotate(90)"/><rect class="cls-1" x="17.32" y="0.68" width="8.17" height="9.37"/><path class="cls-1" d="M16.93,41.6a12.23,12.23,0,0,1-15.57-16"/><path class="cls-1" d="M41.6,26a12.24,12.24,0,0,1-16,15.58"/><path class="cls-1" d="M26,1.34a12.24,12.24,0,0,1,15.58,16"/><path class="cls-1" d="M1.34,16.93a12.23,12.23,0,0,1,16-15.57"/></g></g></svg>