<svg id="service-1" xmlns="http://www.w3.org/2000/svg" viewBox="0 0 377 324.22"><defs><style>.cls-1{fill:#fafafa;stroke:#e6e6e6;stroke-width:2px;}.cls-1,.cls-10,.cls-7,.cls-8,.cls-9{stroke-miterlimit:10;}.cls-2,.cls-4,.cls-8{fill:#c4ccd9;}.cls-10,.cls-2,.cls-3,.cls-5,.cls-6,.cls-7,.cls-8,.cls-9{stroke:#010101;}.cls-10,.cls-2,.cls-3,.cls-4,.cls-5,.cls-6{stroke-linecap:round;}.cls-2,.cls-3,.cls-4,.cls-5,.cls-6{stroke-linejoin:round;}.cls-10,.cls-3{fill:none;}.cls-4{stroke:#1e1e1c;}.cls-5,.cls-9{fill:#fff;}.cls-6{fill:#f1f1f1;}.cls-7{fill:#f0f0f0;}</style></defs>
    <path class="cls-1" d="M376.5,248.87V124.46a10,10,0,0,0-6.55-9.39L195.41,50.84a20,20,0,0,0-13.82,0L7.05,115.07A10,10,0,0,0,.5,124.46V248.87a10,10,0,0,0,6.55,9.39l174.54,64.23a20,20,0,0,0,13.82,0L370,258.26A10,10,0,0,0,376.5,248.87Z" />
    <polyline class="cls-2" points="264.84 296.97 264.84 103.43 92.86 40.21 92.86 272.43 212.38 316.36" />
    <polyline class="cls-3 grey" points="241.14 305.69 97.39 249.91 97.39 58.66 260.31 121.88 260.31 298.64" />
    <path class="cls-4" d="M274.73,66.16,146.36,19.69l-.66-.22a22.52,22.52,0,0,0-30.28,21.12V256.91l125.72,48.78,1.14-.42V86.34a22.5,22.5,0,0,1,22.5-22.5Z" />
    <path class="cls-3 grey" d="M287.32,154a22.44,22.44,0,0,0,9.82,18.58l0,0-32.33-12.16V103.43l-22.56-8.29.08-8.74a22.48,22.48,0,0,1,45,0Z" />
    <path class="cls-4" d="M287.32,154a22.48,22.48,0,1,0,45,0l-45-16Z" />
    <ellipse class="cls-5 grey" cx="148.81" cy="98.68" rx="16.57" ry="22.7" />
    <polyline class="cls-6" points="148.81 75.97 148.81 98.68 165.38 98.68" />
    <polyline class="cls-6" points="161.08 83.43 148.81 98.68 141.41 118.99" />
    <line class="cls-4" x1="174.15" y1="99.88" x2="231.38" y2="120.92" />
    <line class="cls-4" x1="173.87" y1="110.67" x2="231.38" y2="131.81" />
    <line class="cls-4" x1="128.33" y1="139.15" x2="231.38" y2="177.03" />
    <line class="cls-4" x1="128.33" y1="162.01" x2="231.38" y2="199.89" />
    <line class="cls-4" x1="128.33" y1="184.88" x2="231.38" y2="222.76" />
    <line class="cls-4" x1="128.33" y1="218.84" x2="163.34" y2="231.71" />
    <line class="cls-4" x1="128.33" y1="225.33" x2="163.34" y2="238.2" />
    <line class="cls-4" x1="128.33" y1="240.77" x2="231.38" y2="278.65" />
    <line class="cls-4" x1="128.33" y1="150.05" x2="231.38" y2="187.93" />
    <polygon class="cls-7 grey" points="215.08 272.66 209.77 270.69 209.77 240.77 215.08 242.95 215.08 272.66" />
    <polygon class="cls-7 grey" points="204.46 268.74 199.14 266.81 199.14 247.91 204.46 250.09 204.46 268.74" />
    <polygon class="cls-7 grey" points="193.83 264.82 188.52 262.9 188.52 221.69 193.83 223.87 193.83 264.82" />
    <polygon class="cls-7 grey" points="183.21 260.95 177.9 259 177.9 251.24 183.21 253.42 183.21 260.95" />
    <path class="cls-3 grey" d="M92.85,40.21h9.07c.11,0,13.5,4.91,13.5,4.91v3.39Z" />
    <polygon class="cls-3 grey" points="242.32 91.4 274.73 103.43 264.84 103.43 242.28 95.14 242.32 91.4" />
    <polygon class="cls-3 grey" points="274.73 293.33 274.73 103.43 264.84 103.43 264.84 296.97 274.73 293.33" />
    <ellipse class="cls-8" cx="173.46" cy="290.58" rx="3.87" ry="7.1" />
    <path class="cls-8" d="M173.56,294.63l-.73-.28a.76.76,0,0,1-.5-.71v-5.9a.76.76,0,0,1,1.06-.69l.73.32a.75.75,0,0,1,.46.69v5.86A.76.76,0,0,1,173.56,294.63Z" />
    <line class="cls-9" x1="86.46" y1="0.5" x2="86.46" y2="13.18" />
    <line class="cls-9" x1="92.8" y1="6.84" x2="80.12" y2="6.84" />
    <line class="cls-9" x1="305.41" y1="232.85" x2="305.41" y2="245.52" />
    <line class="cls-9" x1="311.75" y1="239.18" x2="299.07" y2="239.18" />
    <line class="cls-9" x1="56.04" y1="157.68" x2="47.08" y2="166.64" />
    <line class="cls-9" x1="56.04" y1="166.64" x2="47.08" y2="157.68" />
</svg>