<svg xmlns="http://www.w3.org/2000/svg" viewBox="0 0 51.11 48.33"><defs><style>.cls-1{fill:none;stroke:#00abe9;stroke-linecap:round;stroke-linejoin:round;}</style></defs><title>Services fiduciaires 3</title><g data-name="Calque 2"><g data-name="Calque 1"><polyline class="cls-1" points="2.79 26.13 0.5 26.7 10.5 47.83 50.61 37.83 48.33 33"/><polyline class="cls-1" points="37.16 35.78 50.61 32.43 48.33 27.6"/><polyline class="cls-1" points="2.79 20.73 0.5 21.3 10.5 42.43 26.49 38.44"/><polyline class="cls-1" points="37.16 30.38 50.61 27.03 48.33 22.2"/><polyline class="cls-1" points="2.79 15.33 0.5 15.9 10.5 37.03 26.49 33.04"/><polygon class="cls-1" points="40.61 0.5 0.5 10.5 10.5 31.63 50.61 21.63 40.61 0.5"/><polyline class="cls-1" points="27.16 3.98 37.16 25.1 37.16 41.19"/><polyline class="cls-1" points="16.49 6.54 26.49 27.67 26.49 43.84"/></g></g></svg>