<svg id="service-10" xmlns="http://www.w3.org/2000/svg" viewBox="0 0 378 302.92"><defs><style>.cls-1{fill:#fafafa;stroke:#e6e6e6;stroke-width:2px;}.cls-1,.cls-10,.cls-7,.cls-8,.cls-9{stroke-miterlimit:10;}.cls-2,.cls-4,.cls-8{fill:#c4ccd9;}.cls-10,.cls-2,.cls-3,.cls-5,.cls-6,.cls-7,.cls-8,.cls-9{stroke:#010101;}.cls-10,.cls-2,.cls-3,.cls-4,.cls-5,.cls-6{stroke-linecap:round;}.cls-2,.cls-3,.cls-4,.cls-5,.cls-6{stroke-linejoin:round;}.cls-10,.cls-3{fill:none;}.cls-4{stroke:#1e1e1c;}.cls-5,.cls-9{fill:#fff;}.cls-6{fill:#f1f1f1;}.cls-7{fill:#f0f0f0;}</style></defs>
	<path class="cls-1" d="M377,227.07V102.65a10,10,0,0,0-6.55-9.38L195.91,29a20,20,0,0,0-13.82,0L7.55,93.27A10,10,0,0,0,1,102.65V227.07a10,10,0,0,0,6.55,9.39l174.54,64.23a20,20,0,0,0,13.82,0l174.54-64.23A10,10,0,0,0,377,227.07Z" />
	<polygon class="cls-2 grey" points="114.25 252.69 168.14 273.59 237.54 273.59 184.27 252.69 114.25 252.69" />
	<polygon class="cls-2 grey" points="204.08 266.5 174.51 254.94 174.51 234.41 204.08 245.96 204.08 266.5" />
	<polygon class="cls-3" points="297.72 263.14 297.72 100.77 77.09 15.55 77.09 197.97 270.83 273.59 297.72 263.14" />
	<polygon class="cls-4" points="289.1 256.15 288.98 107.69 85.14 28.95 85.14 176.53 289.1 256.15" />
	<line class="cls-4" x1="168.06" y1="96.01" x2="98.54" y2="69.16" />
	<line class="cls-4" x1="168.06" y1="106.02" x2="98.54" y2="79.16" />
	<line class="cls-4" x1="168.06" y1="116.02" x2="98.54" y2="89.16" />
	<line class="cls-4" x1="168.06" y1="126.02" x2="98.54" y2="99.17" />
	<line class="cls-4" x1="168.06" y1="136.03" x2="98.54" y2="109.17" />
	<line class="cls-4" x1="168.06" y1="146.03" x2="98.54" y2="119.18" />
	<line class="cls-4" x1="149.48" y1="148.86" x2="98.54" y2="129.18" />
	<line class="cls-4" x1="168.06" y1="176.04" x2="98.54" y2="149.19" />
	<polygon class="cls-2 grey" points="77.09 15.55 91.84 15.55 312.46 100.77 297.72 100.77 77.09 15.55" />
	<polygon class="cls-2 grey" points="297.72 100.77 297.72 263.14 312.46 257.8 312.46 100.77 297.72 100.77" />
	<ellipse class="cls-2 grey" cx="187.12" cy="229.21" rx="4.69" ry="9.49" />
	<line class="cls-5" x1="189.18" y1="197.45" x2="269.97" y2="227.14" />
	<polygon class="cls-2 grey" points="258.2 222.82 246.36 218.41 246.36 151.72 258.2 156.58 258.2 222.82" />
	<polygon class="cls-2 grey" points="234.51 214.08 222.67 209.76 222.67 167.64 234.51 172.5 234.51 214.08" />
	<polygon class="cls-2 grey" points="210.83 205.34 198.99 201.05 198.99 109.17 210.83 114.03 210.83 205.34" />
	<line class="cls-6" x1="59.26" y1="0.5" x2="61.11" y2="1.26" />
	<line class="cls-7" x1="64.56" y1="2.68" x2="83.54" y2="10.47" />
	<polyline class="cls-6" points="85.26 11.17 87.11 11.93 87.68 13.85" />
	<line class="cls-8" x1="88.76" y1="17.52" x2="96.87" y2="45.01" />
	<polyline class="cls-6" points="97.41 46.84 97.98 48.76 99.84 49.48" />
	<line class="cls-9" x1="103.23" y1="50.81" x2="135.45" y2="63.38" />
	<line class="cls-6" x1="137.14" y1="64.05" x2="139.01" y2="64.77" />
	<polygon class="cls-10" points="145.58 67.34 134.84 67.51 138.51 64.58 137.79 59.94 145.58 67.34" />
	<line class="cls-6" x1="348.16" y1="142.58" x2="348.16" y2="155.14" />
	<line class="cls-6" x1="354.44" y1="148.86" x2="341.88" y2="148.86" />
	<line class="cls-6" x1="81.22" y1="221.83" x2="72.34" y2="230.71" />
	<line class="cls-6" x1="81.22" y1="230.71" x2="72.34" y2="221.83" />
	<line class="cls-6" x1="348.16" y1="142.58" x2="348.16" y2="155.14" />
	<line class="cls-6" x1="354.44" y1="148.86" x2="341.88" y2="148.86" />
	<line class="cls-6" x1="287.5" y1="9.27" x2="287.5" y2="21.83" />
	<line class="cls-6" x1="293.78" y1="15.55" x2="281.22" y2="15.55" />
	<line class="cls-6" x1="287.5" y1="9.27" x2="287.5" y2="21.83" />
	<line class="cls-6" x1="293.78" y1="15.55" x2="281.22" y2="15.55" />
	<line class="cls-6" x1="81.22" y1="221.83" x2="72.34" y2="230.71" />
	<line class="cls-6" x1="81.22" y1="230.71" x2="72.34" y2="221.83" />
</svg>