<svg id="service-1" xmlns="http://www.w3.org/2000/svg" viewBox="0 0 378 300.23">    <defs>        <style>            .cls-1 {                fill: #fafafa;                stroke: #e6e6e6;                stroke-width: 2px;            }                        .cls-1,            .cls-8,            .cls-9 {                stroke-miterlimit: 10;            }                        .cls-2 {                fill: #c4cdda;            }                        .cls-2,            .cls-3,            .cls-4,            .cls-5,            .cls-6,            .cls-7,            .cls-8,            .cls-9 {                stroke: #010101;            }                        .cls-2,            .cls-3,            .cls-4,            .cls-5,            .cls-6,            .cls-7,            .cls-9 {                stroke-linecap: round;            }                        .cls-2,            .cls-3,            .cls-4,            .cls-5,            .cls-6,            .cls-7 {                stroke-linejoin: round;            }                        .cls-3 {                fill: #f1f1f1;            }                        .cls-4 {                fill: #c4ccd9;            }                        .cls-5,            .cls-8,            .cls-9 {                fill: none;            }                        .cls-6 {                fill: #f0f0f0;            }                        .cls-7 {                fill: #fff;            }        </style>    </defs>    <title>MODALITÉS D’ACCUEIL DU PUBLIC</title>    <g id="Calque_2" data-name="Calque 2">        <g id="Calque_1-2" data-name="Calque 1">            <path class="cls-1" d="M377,224.38V100a10,10,0,0,0-6.55-9.38L195.91,26.34a20,20,0,0,0-13.82,0L7.55,90.58A10,10,0,0,0,1,100V224.38a10,10,0,0,0,6.55,9.38L182.09,298a20,20,0,0,0,13.82,0l174.54-64.24A10,10,0,0,0,377,224.38Z" />            <circle class="cls-2" cx="161.24" cy="251.01" r="9.84" />            <circle class="cls-3" cx="267.85" cy="35.48" r="10.22" />            <path class="cls-4" d="M343.66,161.31,292.22,183.9c1.92-1.31-1.42-12-1.42-12-1.93-4.25-25.23-54.16-26.39-56.77s-7.27-12.76-8.13-13.41c0,0,5.38-2.26,23.87-10.34l63.51-23.1h0a133,133,0,0,1,.35,92.09Z" />            <line class="cls-5" x1="322.43" y1="11.32" x2="322.43" y2="23.88" />            <line class="cls-5" x1="328.71" y1="17.6" x2="316.15" y2="17.6" />            <path class="cls-6" d="M126,110.49l10.95,4.4a35.78,35.78,0,0,1-1.54,15.51c-2.73,7.42-13.89,35.07-19.71,42a48.57,48.57,0,0,1-9.27-2Z" />            <path class="cls-5" d="M177.88,110.88a7.38,7.38,0,0,1-3.61,5.89c-1,.61-9.19,6.24-15.47,5.52s-7.88-7.94-7.84-9.32c0,0-.56-1.23,4.39-3.09s10.84-6.54,12.73-8.42a8.5,8.5,0,0,1,7.67-1.94c2.86.57,20.49,3,23.65,3.49s7.42,2.67,9.87,3.12,15.84,1.79,17.95,2.07,3.58,2.64,6.09,3.17,14.25-3.63,15.59-4.28" />            <path class="cls-5" d="M174.8,116.41s9.17,1.12,12.81,2.09,18.87,10.95,28.08,18.62,21.17,17.23,22.46,18.47,8,9.57,9.08,12.09a8.61,8.61,0,0,1-2,8.68c-1.79,1.56-4.11,3.92-9.18,2.11-3.72-1.33-28.84-23.24-28.84-23.24" />            <path class="cls-5" d="M235.76,178.48c1.8,3-3.6,9.59-5.28,10.65-1.09.69-5.6,2.78-9.11-.46s-19.78-15-19.78-15" />            <path class="cls-5" d="M220.17,187.47a3.94,3.94,0,0,1,1,4.84,13.47,13.47,0,0,1-3.68,4.57c-1.3.88-4.37,2.39-7,1.62s-20-13.1-20-13.1" />            <path class="cls-5" d="M205.33,195.65a15.7,15.7,0,0,1-.49,5c-.68,1.75-4.76,5.28-8.75,4.88s-9.09-4.93-10.75-6.46c0,0-4.8-4.7-5.59-5.42s-6.78-3.65-9.25.19" />            <path class="cls-5" d="M119.7,166.21s15.72,11.46,17.67,12.73,5.86,2.82,7.74,2.8a33.81,33.81,0,0,0-.85,3.65c-.19,1.42,1.37,7.13,4.89,8.34a8.45,8.45,0,0,0,7.31-.52c0,1.72,3.61,6.64,6.91,7.11s5.19-.62,6.14-1.6c1.78,2.18,3.53,5.27,7.54,5.81s7.65-1.74,9.68-4.2" />            <path class="cls-5" d="M156.46,193.21s2.63-5.7-1.25-8.87-7.3-4.64-10.1-2.6" />            <path class="cls-5" d="M169.51,198.72s1.18-4-.17-6.21-2.34-4.36-4.58-4.76-5.17-.76-7,.55" />            <path class="cls-5" d="M133.82,176.44s-1.8,4.82-1.27,7.36,3.23,3.24,4.5,3.44a9.82,9.82,0,0,0,7.44-3.09" />            <path class="cls-5" d="M137.06,115.51s12.37-1.8,13.9-2.54" />            <polyline class="cls-5" points="288.26 166.39 264.41 115.11 256.58 102.58 248.72 107.17" />            <path class="cls-6" d="M288.26,166.39a100.46,100.46,0,0,1-12,5.23c-1.74-2.85-17.51-44-20.08-51.45a50.22,50.22,0,0,0-7-13l7.61-4.76,8.44,14,23,50" />            <path class="cls-5" d="M246.56,166.06s8.19-8.43,11.33-9.67,8.32-3.09,10.77-3.42" />            <circle class="cls-5" cx="279.81" cy="163.54" r="2.87" />            <circle class="cls-5" cx="113.8" cy="166.36" r="2.25" />            <line class="cls-5" x1="86.22" y1="1.24" x2="77.34" y2="10.12" />            <line class="cls-5" x1="86.22" y1="10.12" x2="77.34" y2="1.24" />            <path class="cls-7" d="M283.7,168.61s4.48,8.15,7.38,13.81,1.69-6.28-.24-10.53" />            <path class="cls-4" d="M37.09,168.61l27.59,12.78s14.72,6.33,25.71,11.11c13.7-10.68,26.32-43.82,32-60.16s3.3-23.38,3.3-23.38L102.05,98.83,37.09,76,35,82.84a133.67,133.67,0,0,0,2.13,85.77Z" />            <path class="cls-8" d="M101.43,268.31c-8.09-20.34-9.75-50.14-6-80.77" />            <path class="cls-8" d="M271.78,44.92c6.46,33.47-.27,83.23-20.7,131.81-23.61,56.16-59.28,98.43-91.53,113" />            <path class="cls-9" d="M118.44,103.89C152.55,42.4,204.94-13.27,243.28,3.54,253.37,8,261,16.74,266.17,28.77" />            <path class="cls-8" d="M168.81,257.07c20.29,15.17,42.65,21.5,60.26,14.09,25.05-10.53,36.42-46,32.08-87.52l-3.26-27.25" />            <path class="cls-9" d="M157.45,247.23c-16.52-16.26-32.85-40-44-66.5C86,115.47,93.29,50.16,129.71,34.85c29.8-12.53,73.71,15.55,102.68,61l8.55,14" />            <circle class="cls-2" cx="161.24" cy="251.01" r="9.84" />            <circle class="cls-3" cx="267.85" cy="35.48" r="10.22" />            <path class="cls-4" d="M343.66,161.31,292.22,183.9c1.92-1.31-1.42-12-1.42-12-1.93-4.25-25.23-54.16-26.39-56.77s-7.27-12.76-8.13-13.41c0,0,5.38-2.26,23.87-10.34l63.51-23.1h0a133,133,0,0,1,.35,92.09Z" />            <line class="cls-5" x1="322.43" y1="11.32" x2="322.43" y2="23.88" />            <line class="cls-5" x1="328.71" y1="17.6" x2="316.15" y2="17.6" />            <path class="cls-6" d="M126,110.49l10.95,4.4a35.78,35.78,0,0,1-1.54,15.51c-2.73,7.42-13.89,35.07-19.71,42a48.57,48.57,0,0,1-9.27-2Z" />            <path class="cls-5" d="M177.88,110.88a7.38,7.38,0,0,1-3.61,5.89c-1,.61-9.19,6.24-15.47,5.52s-7.88-7.94-7.84-9.32c0,0-.56-1.23,4.39-3.09s10.84-6.54,12.73-8.42a8.5,8.5,0,0,1,7.67-1.94c2.86.57,20.49,3,23.65,3.49s7.42,2.67,9.87,3.12,15.84,1.79,17.95,2.07,3.58,2.64,6.09,3.17,14.25-3.63,15.59-4.28" />            <path class="cls-5" d="M174.8,116.41s9.17,1.12,12.81,2.09,18.87,10.95,28.08,18.62,21.17,17.23,22.46,18.47,8,9.57,9.08,12.09a8.61,8.61,0,0,1-2,8.68c-1.79,1.56-4.11,3.92-9.18,2.11-3.72-1.33-28.84-23.24-28.84-23.24" />            <path class="cls-5" d="M235.76,178.48c1.8,3-3.6,9.59-5.28,10.65-1.09.69-5.6,2.78-9.11-.46s-19.78-15-19.78-15" />            <path class="cls-5" d="M220.17,187.47a3.94,3.94,0,0,1,1,4.84,13.47,13.47,0,0,1-3.68,4.57c-1.3.88-4.37,2.39-7,1.62s-20-13.1-20-13.1" />            <path class="cls-5" d="M205.33,195.65a15.7,15.7,0,0,1-.49,5c-.68,1.75-4.76,5.28-8.75,4.88s-9.09-4.93-10.75-6.46c0,0-4.8-4.7-5.59-5.42s-6.78-3.65-9.25.19" />            <path class="cls-5" d="M119.7,166.21s15.72,11.46,17.67,12.73,5.86,2.82,7.74,2.8a33.81,33.81,0,0,0-.85,3.65c-.19,1.42,1.37,7.13,4.89,8.34a8.45,8.45,0,0,0,7.31-.52c0,1.72,3.61,6.64,6.91,7.11s5.19-.62,6.14-1.6c1.78,2.18,3.53,5.27,7.54,5.81s7.65-1.74,9.68-4.2" />            <path class="cls-5" d="M156.46,193.21s2.63-5.7-1.25-8.87-7.3-4.64-10.1-2.6" />            <path class="cls-5" d="M169.51,198.72s1.18-4-.17-6.21-2.34-4.36-4.58-4.76-5.17-.76-7,.55" />            <path class="cls-5" d="M133.82,176.44s-1.8,4.82-1.27,7.36,3.23,3.24,4.5,3.44a9.82,9.82,0,0,0,7.44-3.09" />            <path class="cls-5" d="M137.06,115.51s12.37-1.8,13.9-2.54" />            <polyline class="cls-5" points="288.26 166.39 264.41 115.11 256.58 102.58 248.72 107.17" />            <path class="cls-6" d="M288.26,166.39a100.46,100.46,0,0,1-12,5.23c-1.74-2.85-17.51-44-20.08-51.45a50.22,50.22,0,0,0-7-13l7.61-4.76,8.44,14,23,50" />            <path class="cls-5" d="M246.56,166.06s8.19-8.43,11.33-9.67,8.32-3.09,10.77-3.42" />            <circle class="cls-5" cx="279.81" cy="163.54" r="2.87" />            <circle class="cls-5" cx="113.8" cy="166.36" r="2.25" />            <line class="cls-5" x1="86.22" y1="1.24" x2="77.34" y2="10.12" />            <line class="cls-5" x1="86.22" y1="10.12" x2="77.34" y2="1.24" />            <path class="cls-7" d="M283.7,168.61s4.48,8.15,7.38,13.81,1.69-6.28-.24-10.53" />            <path class="cls-4" d="M37.09,168.61l27.59,12.78s14.72,6.33,25.71,11.11c13.7-10.68,26.32-43.82,32-60.16s3.3-23.38,3.3-23.38L102.05,98.83,37.09,76,35,82.84a133.67,133.67,0,0,0,2.13,85.77Z" />            <path class="cls-8" d="M101.43,268.31c-8.09-20.34-9.75-50.14-6-80.77" />            <path class="cls-8" d="M271.78,44.92c6.46,33.47-.27,83.23-20.7,131.81-23.61,56.16-59.28,98.43-91.53,113" />            <path class="cls-9" d="M118.44,103.89C152.55,42.4,204.94-13.27,243.28,3.54,253.37,8,261,16.74,266.17,28.77" />            <path class="cls-8" d="M168.81,257.07c20.29,15.17,42.65,21.5,60.26,14.09,25.05-10.53,36.42-46,32.08-87.52l-3.26-27.25" />            <path class="cls-9" d="M157.45,247.23c-16.52-16.26-32.85-40-44-66.5C86,115.47,93.29,50.16,129.71,34.85c29.8-12.53,73.71,15.55,102.68,61l8.55,14" />            <line class="cls-5" x1="297.01" y1="222.02" x2="288.13" y2="230.9" />            <line class="cls-5" x1="297.01" y1="230.9" x2="288.13" y2="222.02" />        </g>    </g></svg>