<svg id="service-7" xmlns="http://www.w3.org/2000/svg" viewBox="0 0 378 323.41"><defs><style>.cls-1{fill:#fafafa;stroke:#e6e6e6;stroke-width:2px;}.cls-1,.cls-10,.cls-7,.cls-8,.cls-9{stroke-miterlimit:10;}.cls-2,.cls-4,.cls-8{fill:#c4ccd9;}.cls-10,.cls-2,.cls-3,.cls-5,.cls-6,.cls-7,.cls-8,.cls-9{stroke:#010101;}.cls-10,.cls-2,.cls-3,.cls-4,.cls-5,.cls-6{stroke-linecap:round;}.cls-2,.cls-3,.cls-4,.cls-5,.cls-6{stroke-linejoin:round;}.cls-10,.cls-3{fill:none;}.cls-4{stroke:#1e1e1c;}.cls-5,.cls-9{fill:#fff;}.cls-6{fill:#f1f1f1;}.cls-7{fill:#f0f0f0;}</style></defs>	<path class="cls-1" d="M377,247.57V123.15a10,10,0,0,0-6.55-9.39L195.91,49.53a20,20,0,0,0-13.82,0L7.55,113.76A10,10,0,0,0,1,123.15V247.57A10,10,0,0,0,7.55,257l174.54,64.23a20,20,0,0,0,13.82,0L370.45,257A10,10,0,0,0,377,247.57Z" />	<polyline class="cls-2 grey" points="187.8 255.82 204.78 255.82 286.99 287.66 278.28 290.87 187.8 255.82" />	<polyline class="cls-3" points="278.28 290.87 187.8 255.82 187.8 303.38 215.84 313.85" />	<line class="cls-3" x1="255.49" y1="299.26" x2="197.8" y2="276.92" />	<line class="cls-3" x1="244.51" y1="303.3" x2="197.8" y2="285.21" />	<line class="cls-3" x1="233.53" y1="307.34" x2="197.8" y2="293.5" />	<polygon class="cls-2 grey" points="69.56 41.84 88.39 41.84 247.32 103.39 228.5 103.39 69.56 41.84" />	<rect class="cls-2 grey" x="228.5" y="103.39" width="18.82" height="139.11" />	<polygon class="cls-3" points="228.5 103.39 69.56 41.84 69.56 183.19 155.57 215.29 155.57 237.22 184.46 226.07 228.5 242.5 228.5 103.39" />	<line class="cls-3" x1="148.25" y1="90.19" x2="80.65" y2="64" />	<line class="cls-3" x1="214.29" y1="124.95" x2="80.65" y2="73.19" />	<line class="cls-3" x1="201.71" y1="129.27" x2="80.65" y2="82.38" />	<line class="cls-3" x1="205.13" y1="139.78" x2="80.65" y2="91.57" />	<line class="cls-3" x1="148.25" y1="126.94" x2="80.65" y2="100.76" />	<polygon class="cls-2 grey" points="155.57 237.22 175.28 237.22 194.83 229.94 184.46 226.07 155.57 237.22" />	<polygon class="cls-4 grey" points="101.27 203.47 101.27 182.36 88.92 177.75 88.92 198.83 80.58 195.69 95.1 219.52 109.81 206.69 101.27 203.47" />	<polygon class="cls-4 grey" points="88.92 177.75 95.55 177.75 107.07 182.19 101.27 182.19 88.92 177.75" />	<rect class="cls-4 grey" x="101.27" y="182.19" width="5.8" height="21.28" />	<polygon class="cls-4 grey" points="101.27 203.47 107.07 203.47 115.99 206.69 109.81 206.69 101.27 203.47" />	<polygon class="cls-4 grey" points="95.1 219.52 101.27 219.52 115.99 206.69 109.81 206.69 95.1 219.52" />	<polygon class="cls-4 grey" points="80.58 195.69 87.24 195.69 88.92 196.36 88.92 198.83 80.58 195.69" />	<polygon class="cls-4 grey" points="89.02 144.92 89.02 166.03 101.37 170.64 101.37 149.56 109.72 152.7 95.2 128.87 80.48 141.7 89.02 144.92" />	<polygon class="cls-4 grey" points="101.37 170.64 107.07 170.64 107.07 151.7 101.37 149.56 101.37 170.64" />	<polygon class="cls-4 grey" points="95.2 128.87 101.37 128.87 115.99 152.7 109.72 152.7 95.2 128.87" />	<polygon class="cls-3" points="92.9 45.16 131.48 45.16 188.45 66.44 148.13 66.44 92.9 45.16" />	<rect class="cls-2 grey" x="148.35" y="66.47" width="40.1" height="10.04" />	<polygon class="cls-2 grey" points="148.35 76.52 92.9 55.2 92.9 45.16 148.35 66.47 148.35 76.52" />	<polygon class="cls-5" points="92.9 35.12 131.48 35.12 188.45 56.4 148.13 56.4 92.9 35.12" />	<rect class="cls-2 grey" x="148.35" y="56.43" width="40.1" height="10.04" />	<polygon class="cls-2 grey" points="148.35 66.47 92.9 45.16 92.9 35.12 148.35 56.43 148.35 66.47" />	<polygon class="cls-3" points="110.33 41.84 110.33 61.91 124.75 67.45 124.75 47.36 110.33 41.84" />	<polygon class="cls-3" points="110.33 41.84 149.47 41.84 164.26 47.36 124.75 47.36 110.33 41.84" />	<path class="cls-6 grey" d="M140.54,271.74l-21.78-4-1.19,5.93c-.37,2,4.22,4.53,10.26,5.64s11.24.39,11.61-1.61l1.1-5.95" />	<ellipse class="cls-6 grey" cx="129.56" cy="269.94" rx="3.16" ry="11.12" transform="translate(-159.38 348.43) rotate(-79.56)" />	<path class="cls-6 grey" d="M292.35,161.1l-15.6,14.49,3.89,4.32c1.33,1.44,5.92-.66,10.25-4.68s6.75-8.44,5.42-9.87l-4-4.26" />	<ellipse class="cls-6 grey" cx="284.65" cy="168.52" rx="10.69" ry="3.03" transform="translate(-38.6 238.79) rotate(-42.89)" />	<line class="cls-7" x1="339.63" y1="158.1" x2="329.24" y2="168.49" />	<line class="cls-7" x1="339.63" y1="168.49" x2="329.24" y2="158.1" />	<line class="cls-7" x1="291.44" y1="7.84" x2="276.75" y2="7.84" />	<line class="cls-7" x1="284.1" y1="15.19" x2="284.1" y2="0.5" />	<line class="cls-7" x1="63.25" y1="233.41" x2="48.56" y2="233.41" />	<line class="cls-7" x1="55.9" y1="240.76" x2="55.9" y2="226.07" /></svg>