<svg xmlns="http://www.w3.org/2000/svg" viewBox="0 0 56.4 51.68"><defs><style>.cls-1{fill:none;stroke:#00abe9;stroke-linecap:round;stroke-linejoin:round;}</style></defs><title>Services fiduciaires 9</title><g  data-name="Calque 2"><g data-name="Calque 1"><polyline class="cls-1" points="2.79 29.48 0.5 30.05 10.5 51.18 50.61 41.18 48.33 36.35"/><polyline class="cls-1" points="37.16 39.13 50.61 35.78 48.33 30.95"/><polyline class="cls-1" points="2.79 24.08 0.5 24.65 10.5 45.78 26.49 41.79"/><polyline class="cls-1" points="37.16 33.73 50.61 30.38 48.33 25.54"/><polyline class="cls-1" points="2.79 18.68 0.5 19.25 10.5 40.38 26.49 36.39"/><polyline class="cls-1" points="28.64 6.83 0.5 13.85 10.5 34.97 49.3 25.3"/><polyline class="cls-1" points="34.56 22.95 37.16 28.45 37.16 44.53"/><line class="cls-1" x1="27.16" y1="7.32" x2="27.85" y2="8.77"/><polyline class="cls-1" points="16.49 9.88 26.49 31.01 26.49 47.19"/><circle class="cls-1" cx="39.03" cy="12.19" r="11.69"/><circle class="cls-1" cx="39.03" cy="12.19" r="8.46"/><path class="cls-1" d="M48.58,18.9l6.73,6.73a2,2,0,0,1,0,2.84h0a2,2,0,0,1-2.84,0l-6.73-6.73"/></g></g></svg>