<svg id="service-9" xmlns="http://www.w3.org/2000/svg" viewBox="0 0 378 324.67"><defs><style>.cls-1{fill:#fafafa;stroke:#e6e6e6;stroke-width:2px;}.cls-1,.cls-10,.cls-7,.cls-8,.cls-9{stroke-miterlimit:10;}.cls-2,.cls-4,.cls-8{fill:#c4ccd9;}.cls-10,.cls-2,.cls-3,.cls-5,.cls-6,.cls-7,.cls-8,.cls-9{stroke:#010101;}.cls-10,.cls-2,.cls-3,.cls-4,.cls-5,.cls-6{stroke-linecap:round;}.cls-2,.cls-3,.cls-4,.cls-5,.cls-6{stroke-linejoin:round;}.cls-10,.cls-3{fill:none;}.cls-4{stroke:#1e1e1c;}.cls-5,.cls-9{fill:#fff;}.cls-6{fill:#f1f1f1;}.cls-7{fill:#f0f0f0;}</style></defs>
	<path class="cls-1" d="M377,248.82V124.41a10,10,0,0,0-6.55-9.39L195.91,50.79a20,20,0,0,0-13.82,0L7.55,115A10,10,0,0,0,1,124.41V248.82a10,10,0,0,0,6.55,9.39l174.54,64.23a20,20,0,0,0,13.82,0l174.54-64.23A10,10,0,0,0,377,248.82Z" />
	<polyline class="cls-2" points="1 170.55 185.01 170.55 377 239.27" />
	<polyline class="cls-3 grey" points="376.28 246.51 193.27 246.51 6.93 179.91 199.3 179.91 377 243.42" />
	<ellipse class="cls-2" cx="304.28" cy="251.63" rx="4.38" ry="2.39" />
	<polyline class="cls-4" points="210.57 257.32 210.57 269.4 1 193.3 1.01 182.31 210.57 257.32 1.01 182.31 210.57 257.32" />
	<rect class="cls-2" x="119.29" y="58.52" width="65.8" height="140.32" />
	<polygon class="cls-3 grey" points="87.33 46.78 119.29 58.52 119.29 198.84 87.33 187.11 87.33 46.78" />
	<polygon class="cls-4" points="185.09 58.52 153.13 46.78 87.33 46.78 119.29 58.52 185.09 58.52" />
	<rect class="cls-3 grey" x="127.82" y="69.26" width="49.85" height="7.46" />
	<rect class="cls-3 grey" x="127.82" y="81.71" width="49.85" height="7.46" />
	<rect class="cls-3 grey" x="127.82" y="94.15" width="49.85" height="7.46" />
	<rect class="cls-3 grey" x="127.82" y="106.59" width="49.85" height="7.46" />
	<rect class="cls-3 grey" x="127.82" y="119.04" width="49.85" height="7.46" />
	<rect class="cls-3 grey" x="127.82" y="131.48" width="49.85" height="7.46" />
	<rect class="cls-3 grey" x="127.82" y="143.92" width="49.85" height="7.46" />
	<rect class="cls-3 grey" x="127.82" y="156.37" width="49.85" height="7.46" />
	<rect class="cls-3 grey" x="127.82" y="168.81" width="49.85" height="7.46" />
	<polygon class="cls-4" points="340.04 269.4 210.57 269.4 210.57 257.32 372.26 257.32 340.04 269.4" />
	<rect class="cls-2" x="176.76" y="115.77" width="65.8" height="103.6" />
	<polygon class="cls-3 grey" points="144.83 104.03 176.78 115.77 176.73 219.37 144.78 207.63 144.83 104.03" />
	<polygon class="cls-4" points="242.58 115.77 210.63 104.03 144.83 104.03 176.78 115.77 242.58 115.77" />
	<rect class="cls-3 grey" x="185.31" y="126.51" width="49.85" height="7.46" />
	<rect class="cls-3 grey" x="185.31" y="138.95" width="49.85" height="7.46" />
	<rect class="cls-3 grey" x="185.31" y="151.4" width="49.85" height="7.46" />
	<rect class="cls-3 grey" x="185.31" y="163.84" width="49.85" height="7.46" />
	<rect class="cls-3 grey" x="185.31" y="176.28" width="49.85" height="7.46" />
	<rect class="cls-3 grey" x="185.31" y="188.73" width="49.85" height="7.46" />
	<rect class="cls-2" x="232.72" y="98.17" width="65.8" height="140.32" />
	<polygon class="cls-3 grey" points="200.77 86.43 232.72 98.17 232.72 238.49 200.77 226.75 200.77 86.43" />
	<polygon class="cls-4" points="298.52 98.17 266.57 86.43 200.77 86.43 232.72 98.17 298.52 98.17" />
	<rect class="cls-3 grey" x="241.25" y="108.91" width="49.85" height="7.46" />
	<rect class="cls-3 grey" x="241.25" y="121.35" width="49.85" height="7.46" />
	<rect class="cls-3 grey" x="241.25" y="133.8" width="49.85" height="7.46" />
	<rect class="cls-3 grey" x="241.25" y="146.24" width="49.85" height="7.46" />
	<rect class="cls-3 grey" x="241.25" y="158.68" width="49.85" height="7.46" />
	<rect class="cls-3 grey" x="241.25" y="171.13" width="49.85" height="7.46" />
	<rect class="cls-3 grey" x="241.25" y="183.57" width="49.85" height="7.46" />
	<rect class="cls-3 grey" x="241.25" y="196.01" width="49.85" height="7.46" />
	<rect class="cls-3 grey" x="241.25" y="208.46" width="49.85" height="7.46" />
	<line class="cls-5" x1="87.33" y1="31.96" x2="89.18" y2="32.71" />
	<polyline class="cls-6" points="92.78 34.19 119.29 45.04 144.83 85.43 173.07 96.7" />
	<polyline class="cls-5" points="174.87 97.42 176.73 98.17 177.92 96.56" />
	<line class="cls-7" x1="180.33" y1="93.33" x2="198.37" y2="69.1" />
	<polyline class="cls-5" points="199.58 67.49 200.77 65.88 202.61 66.68" />
	<line class="cls-8" x1="205.72" y1="68.02" x2="222.85" y2="75.43" />
	<line class="cls-5" x1="224.41" y1="76.11" x2="226.24" y2="76.9" />
	<polygon class="cls-9" points="232.72 79.7 221.98 79.49 225.76 76.69 225.21 72.03 232.72 79.7" />
	<line class="cls-10" x1="280.09" y1="0.5" x2="280.09" y2="14.05" />
	<line class="cls-10" x1="286.86" y1="7.28" x2="273.31" y2="7.28" />
	<line class="cls-10" x1="328.16" y1="165.76" x2="328.16" y2="179.32" />
	<line class="cls-10" x1="334.93" y1="172.54" x2="321.38" y2="172.54" />
	<line class="cls-10" x1="60.61" y1="64.47" x2="51.03" y2="74.05" />
	<line class="cls-10" x1="60.61" y1="74.05" x2="51.03" y2="64.47" />
</svg>