<svg xmlns="http://www.w3.org/2000/svg" viewBox="0 0 378 324.25"><defs><style>.cls-1,.cls-5{fill:#fafafa;}.cls-1{stroke:#e6e6e6;stroke-miterlimit:10;stroke-width:2px;}.cls-2{fill:none;}.cls-2,.cls-3,.cls-5{stroke:#000;}.cls-2,.cls-3,.cls-4,.cls-5,.cls-6{stroke-linecap:round;stroke-linejoin:round;}.cls-3{fill:#c4ccd9;}.cls-4{fill:#f1f1f1;}.cls-4,.cls-6{stroke:#010101;}.cls-6{fill:#fff;}</style></defs><title>ENQUÊTE CONJONCTURELLE</title><g id="Calque_2" data-name="Calque 2"><g id="Calque_1-2" data-name="Calque 1"><path class="cls-1" d="M377,248.4V124a10,10,0,0,0-6.55-9.38L195.91,50.36a20,20,0,0,0-13.82,0L7.55,114.6A10,10,0,0,0,1,124V248.4a10,10,0,0,0,6.55,9.38L182.09,322a20,20,0,0,0,13.82,0l174.54-64.24A10,10,0,0,0,377,248.4Z"/><line class="cls-2" x1="45.1" y1="76.69" x2="35.52" y2="86.27"/><line class="cls-2" x1="45.1" y1="86.27" x2="35.52" y2="76.69"/><line class="cls-2" x1="325.65" y1="210.98" x2="325.65" y2="224.53"/><line class="cls-2" x1="332.43" y1="217.76" x2="318.88" y2="217.76"/><circle class="cls-3" cx="305.03" cy="160.09" r="31.26"/><polyline class="cls-2" points="318.94 132.1 305.03 160.09 333.01 174"/><polyline class="cls-2" points="335.11 151.59 305.03 160.09 280.08 178.92"/><line class="cls-2" x1="157.23" y1="0.5" x2="157.23" y2="14.05"/><line class="cls-2" x1="164.01" y1="7.28" x2="150.45" y2="7.28"/><polygon class="cls-4" points="164.01 154.97 52.98 112.09 52.98 274.5 164.01 315.36 164.01 154.97"/><polygon class="cls-4" points="305.03 159.43 194.01 116.54 194.01 301.36 222.57 312.52 305.03 281.86 305.03 159.43"/><line class="cls-5" x1="220.23" y1="260.31" x2="280.52" y2="282.47"/><polygon class="cls-3" points="271.74 279.24 262.9 275.95 262.9 226.18 271.74 229.81 271.74 279.24"/><polygon class="cls-3" points="254.06 272.71 245.23 269.49 245.23 238.06 254.06 241.69 254.06 272.71"/><polygon class="cls-3" points="236.39 266.2 227.55 263 227.55 194.44 236.39 198.06 236.39 266.2"/><polygon class="cls-3" points="87.03 25.16 91.44 25.16 222.57 75.82 218.16 75.82 87.03 25.16"/><rect class="cls-3" x="218.16" y="75.82" width="4.41" height="218.89"/><polygon class="cls-4" points="218.16 75.82 87.03 25.16 87.03 243.46 218.16 294.7 218.16 75.82"/><polygon class="cls-6" points="211.36 77.7 93.83 32.31 93.83 227.95 211.36 273.88 211.36 77.7"/><line class="cls-4" x1="198.92" y1="120.15" x2="132.21" y2="94.38"/><line class="cls-4" x1="185.85" y1="121.56" x2="132.21" y2="100.84"/><path class="cls-3" d="M181.69,50.75V45.23a3.53,3.53,0,0,0-2.27-3.3L125.11,21a1.18,1.18,0,0,0-1.61,1.1v6.22l-4.83-1.87a2.37,2.37,0,0,0-3.22,2.21V44.69l74.28,29v-15a7.09,7.09,0,0,0-4.53-6.61Z"/><polygon class="cls-4" points="126.25 104.02 110.66 97.92 110.66 82.33 126.25 88.42 126.25 104.02"/><line class="cls-4" x1="198.93" y1="156.13" x2="132.22" y2="130.36"/><line class="cls-4" x1="185.86" y1="157.54" x2="132.22" y2="136.82"/><polygon class="cls-4" points="126.26 140 110.67 133.91 110.67 118.31 126.26 124.41 126.26 140"/><line class="cls-4" x1="198.94" y1="192.11" x2="132.23" y2="166.34"/><line class="cls-4" x1="185.87" y1="193.53" x2="132.23" y2="172.81"/><polygon class="cls-4" points="126.27 175.98 110.68 169.89 110.68 154.3 126.27 160.39 126.27 175.98"/><line class="cls-4" x1="198.95" y1="228.09" x2="132.25" y2="202.33"/><line class="cls-4" x1="185.88" y1="229.51" x2="132.25" y2="208.79"/><polygon class="cls-4" points="126.28 211.96 110.69 205.87 110.69 190.28 126.28 196.37 126.28 211.96"/><polyline class="cls-4" points="114.03 90.75 116.25 95.59 122.88 91.14"/><polyline class="cls-4" points="114.03 126.73 116.25 131.58 122.88 127.12"/><polyline class="cls-4" points="114.03 198.7 116.25 203.54 122.88 199.09"/><line class="cls-4" x1="114.02" y1="159.52" x2="122.88" y2="170.71"/><line class="cls-4" x1="123.51" y1="162.21" x2="114.02" y2="167.81"/><ellipse class="cls-4" cx="152.59" cy="40.71" rx="2.29" ry="3.12"/></g></g></svg>