<svg xmlns="http://www.w3.org/2000/svg" viewBox="0 0 47.09 45.45"><defs><style>.cls-1{fill:none;stroke:#00abe9;stroke-linecap:round;stroke-linejoin:round;}</style></defs><title>Services bancaires 8</title><g  data-name="Calque 2"><g data-name="Calque 1"><polygon class="cls-1" points="0.5 3.09 23.54 10.95 23.54 44.95 0.5 37.09 0.5 3.09"/><polygon class="cls-1" points="46.59 3.09 23.54 10.95 23.54 44.95 46.59 37.09 46.59 3.09"/><polyline class="cls-1" points="4.52 4.46 4.52 2.01 23.54 10.95 7.66 0.98 7.67 3.49"/><polyline class="cls-1" points="23.54 10.95 11.34 0.5 11.34 2.86"/><polyline class="cls-1" points="42.55 4.46 42.55 2.01 23.52 10.95 39.41 0.98 39.39 3.49"/><polyline class="cls-1" points="23.52 10.95 35.73 0.5 35.73 2.86"/><circle class="cls-1" cx="23.54" cy="26.54" r="11.56"/><path class="cls-1" d="M15.37,18.55a11.57,11.57,0,0,0,16.35,0"/><path class="cls-1" d="M31.72,34.58a11.57,11.57,0,0,0-16.35,0"/><path class="cls-1" d="M25.33,37.89a16.06,16.06,0,0,0,0-22.71"/><path class="cls-1" d="M21.76,37.89a16.06,16.06,0,0,1,0-22.71"/><line class="cls-1" x1="11.98" y1="26.54" x2="35.11" y2="26.54"/><line class="cls-1" x1="23.54" y1="14.97" x2="23.54" y2="38.1"/></g></g></svg>