<svg xmlns="http://www.w3.org/2000/svg" viewBox="0 0 378 324.67"><defs><style>.cls-1{fill:#fafafa;stroke:#e6e6e6;stroke-width:2px;}.cls-1,.cls-10,.cls-7,.cls-8,.cls-9{stroke-miterlimit:10;}.cls-2,.cls-4,.cls-8{fill:#c4ccd9;}.cls-10,.cls-2,.cls-3,.cls-5,.cls-6,.cls-7,.cls-8,.cls-9{stroke:#010101;}.cls-10,.cls-2,.cls-3,.cls-4,.cls-5,.cls-6{stroke-linecap:round;}.cls-2,.cls-3,.cls-4,.cls-5,.cls-6{stroke-linejoin:round;}.cls-10,.cls-3{fill:none;}.cls-4{stroke:#1e1e1c;}.cls-5,.cls-9{fill:#fff;}.cls-6{fill:#f1f1f1;}.cls-7{fill:#f0f0f0;}</style></defs><title>ÉDUCATION ÉCONOMIQUEET FINANCIÈRE DU PUBLIC</title><g id="Calque_2" data-name="Calque 2"><g id="Calque_1-2" data-name="Calque 1"><path class="cls-1" d="M377,248.82V124.41a10,10,0,0,0-6.55-9.39L195.91,50.79a20,20,0,0,0-13.82,0L7.55,115A10,10,0,0,0,1,124.41V248.82a10,10,0,0,0,6.55,9.39l174.54,64.23a20,20,0,0,0,13.82,0l174.54-64.23A10,10,0,0,0,377,248.82Z"/><path class="cls-2" d="M300.57,264.84a44.13,44.13,0,0,1-5.34,21.09l-54.94,20.22a44.29,44.29,0,1,1,60.28-41.31Z"/><polyline class="cls-3" points="256.28 220.55 256.28 264.84 300.57 264.84"/><polyline class="cls-3" points="289.08 235.09 256.28 264.84 236.5 304.46"/><line class="cls-3" x1="52.55" y1="181.28" x2="43.62" y2="190.21"/><line class="cls-3" x1="52.55" y1="190.21" x2="43.62" y2="181.28"/><line class="cls-3" x1="237.9" y1="0.5" x2="237.9" y2="13.13"/><line class="cls-3" x1="244.21" y1="6.81" x2="231.59" y2="6.81"/><line class="cls-3" x1="313.53" y1="105.47" x2="313.53" y2="118.1"/><line class="cls-3" x1="319.84" y1="111.79" x2="307.21" y2="111.79"/><polyline class="cls-4" points="220.91 313.24 96.38 264.58 96.38 38.46 261.01 102.05 261.01 298.52"/><polygon class="cls-5" points="78.89 43.66 95.95 43.66 256.28 105.6 239.23 105.6 78.89 43.66"/><rect class="cls-2" x="74.59" y="38.46" width="21.78" height="5.72"/><polyline class="cls-6" points="239.23 306.5 239.23 102.05 74.59 38.46 74.59 264.58 209.69 317.37"/><polygon class="cls-2" points="190.48 231.66 149.34 197.89 123.34 205.42 123.34 113.21 190.48 139.14 190.48 224.37 190.48 231.66"/><line class="cls-2" x1="123.34" y1="89.56" x2="190.48" y2="115.5"/><line class="cls-2" x1="123.34" y1="223.81" x2="190.48" y2="249.74"/><line class="cls-2" x1="133.63" y1="236.26" x2="177.64" y2="253.26"/><polyline class="cls-5" points="239.23 105.6 239.23 306.5 256.28 300.26 256.28 105.6 239.23 105.6"/><path class="cls-7" d="M292.05,243.59a6.78,6.78,0,0,0-13.56,0,6.69,6.69,0,0,0,.85,3.27h0l5.94,12.65,5.93-12.65h0A6.7,6.7,0,0,0,292.05,243.59Z"/><path class="cls-8" d="M315,185.62c0,8.91-19,16.13-42.41,16.13s-42.42-7.22-42.42-16.13V149.86H315Z"/><polygon class="cls-9" points="272.49 125.33 208.29 145.87 272.62 170.04 336.82 145.32 272.49 125.33"/><polyline class="cls-10" points="272.56 144.81 285.27 165.17 285.27 236.81"/></g></g></svg>