<svg xmlns="http://www.w3.org/2000/svg" viewBox="0 0 44.17 50.49"><defs><style>.cls-1{fill:none;stroke:#00abe9;stroke-linecap:round;stroke-linejoin:round;}</style></defs><title>Travail objectif et fiable</title><g data-name="Calque 2"><g data-name="Calque 1"><path class="cls-1" d="M39.44,16.66v2.5A34.11,34.11,0,0,1,20.77,49.58L20,50l-.8-.41A34.11,34.11,0,0,1,.5,19.16V8.56A27.46,27.46,0,0,0,20,.5a27.51,27.51,0,0,0,9.88,6.35"/><line class="cls-1" x1="19.97" y1="0.5" x2="19.97" y2="49.99"/><line class="cls-1" x1="1.05" y1="25.24" x2="38.89" y2="25.24"/><line class="cls-1" x1="2.66" y1="8.48" x2="0.5" y2="10.64"/><line class="cls-1" x1="7.08" y1="7.77" x2="0.5" y2="14.35"/><line class="cls-1" x1="12.99" y1="5.57" x2="0.5" y2="18.06"/><line class="cls-1" x1="19.97" y1="2.31" x2="0.59" y2="21.68"/><line class="cls-1" x1="19.97" y1="6.02" x2="1" y2="24.99"/><line class="cls-1" x1="19.97" y1="9.73" x2="4.46" y2="25.24"/><line class="cls-1" x1="19.97" y1="13.45" x2="8.17" y2="25.24"/><line class="cls-1" x1="19.97" y1="17.16" x2="11.88" y2="25.24"/><line class="cls-1" x1="19.97" y1="20.87" x2="15.6" y2="25.24"/><line class="cls-1" x1="19.97" y1="24.59" x2="19.31" y2="25.24"/><line class="cls-1" x1="23.02" y1="25.24" x2="19.97" y2="28.3"/><line class="cls-1" x1="26.74" y1="25.24" x2="19.97" y2="32.01"/><line class="cls-1" x1="30.45" y1="25.24" x2="19.97" y2="35.72"/><line class="cls-1" x1="34.16" y1="25.24" x2="19.97" y2="39.44"/><line class="cls-1" x1="37.88" y1="25.24" x2="19.97" y2="43.15"/><line class="cls-1" x1="38.06" y1="28.77" x2="19.97" y2="46.86"/><line class="cls-1" x1="35.53" y1="35.01" x2="21.17" y2="49.38"/><circle class="cls-1" cx="36.38" cy="10.06" r="7.28"/><polyline class="cls-1" points="33.51 9.83 35.58 11.9 39.26 8.21"/></g></g></svg>